G75*
G70*
%OFA0B0*%
%FSLAX24Y24*%
%IPPOS*%
%LPD*%
%AMOC8*
5,1,8,0,0,1.08239X$1,22.5*
%
%ADD10C,0.0000*%
%ADD11C,0.0020*%
D10*
X002631Y000101D02*
X002631Y021101D01*
X028031Y021101D01*
X028631Y020501D01*
X028631Y016001D01*
X029631Y015001D01*
X029631Y002101D01*
X028631Y001101D01*
X028631Y000101D01*
X002631Y000101D01*
X028001Y003101D02*
X028003Y003151D01*
X028009Y003201D01*
X028019Y003250D01*
X028033Y003298D01*
X028050Y003345D01*
X028071Y003390D01*
X028096Y003434D01*
X028124Y003475D01*
X028156Y003514D01*
X028190Y003551D01*
X028227Y003585D01*
X028267Y003615D01*
X028309Y003642D01*
X028353Y003666D01*
X028399Y003687D01*
X028446Y003703D01*
X028494Y003716D01*
X028544Y003725D01*
X028593Y003730D01*
X028644Y003731D01*
X028694Y003728D01*
X028743Y003721D01*
X028792Y003710D01*
X028840Y003695D01*
X028886Y003677D01*
X028931Y003655D01*
X028974Y003629D01*
X029015Y003600D01*
X029054Y003568D01*
X029090Y003533D01*
X029122Y003495D01*
X029152Y003455D01*
X029179Y003412D01*
X029202Y003368D01*
X029221Y003322D01*
X029237Y003274D01*
X029249Y003225D01*
X029257Y003176D01*
X029261Y003126D01*
X029261Y003076D01*
X029257Y003026D01*
X029249Y002977D01*
X029237Y002928D01*
X029221Y002880D01*
X029202Y002834D01*
X029179Y002790D01*
X029152Y002747D01*
X029122Y002707D01*
X029090Y002669D01*
X029054Y002634D01*
X029015Y002602D01*
X028974Y002573D01*
X028931Y002547D01*
X028886Y002525D01*
X028840Y002507D01*
X028792Y002492D01*
X028743Y002481D01*
X028694Y002474D01*
X028644Y002471D01*
X028593Y002472D01*
X028544Y002477D01*
X028494Y002486D01*
X028446Y002499D01*
X028399Y002515D01*
X028353Y002536D01*
X028309Y002560D01*
X028267Y002587D01*
X028227Y002617D01*
X028190Y002651D01*
X028156Y002688D01*
X028124Y002727D01*
X028096Y002768D01*
X028071Y002812D01*
X028050Y002857D01*
X028033Y002904D01*
X028019Y002952D01*
X028009Y003001D01*
X028003Y003051D01*
X028001Y003101D01*
X028001Y014101D02*
X028003Y014151D01*
X028009Y014201D01*
X028019Y014250D01*
X028033Y014298D01*
X028050Y014345D01*
X028071Y014390D01*
X028096Y014434D01*
X028124Y014475D01*
X028156Y014514D01*
X028190Y014551D01*
X028227Y014585D01*
X028267Y014615D01*
X028309Y014642D01*
X028353Y014666D01*
X028399Y014687D01*
X028446Y014703D01*
X028494Y014716D01*
X028544Y014725D01*
X028593Y014730D01*
X028644Y014731D01*
X028694Y014728D01*
X028743Y014721D01*
X028792Y014710D01*
X028840Y014695D01*
X028886Y014677D01*
X028931Y014655D01*
X028974Y014629D01*
X029015Y014600D01*
X029054Y014568D01*
X029090Y014533D01*
X029122Y014495D01*
X029152Y014455D01*
X029179Y014412D01*
X029202Y014368D01*
X029221Y014322D01*
X029237Y014274D01*
X029249Y014225D01*
X029257Y014176D01*
X029261Y014126D01*
X029261Y014076D01*
X029257Y014026D01*
X029249Y013977D01*
X029237Y013928D01*
X029221Y013880D01*
X029202Y013834D01*
X029179Y013790D01*
X029152Y013747D01*
X029122Y013707D01*
X029090Y013669D01*
X029054Y013634D01*
X029015Y013602D01*
X028974Y013573D01*
X028931Y013547D01*
X028886Y013525D01*
X028840Y013507D01*
X028792Y013492D01*
X028743Y013481D01*
X028694Y013474D01*
X028644Y013471D01*
X028593Y013472D01*
X028544Y013477D01*
X028494Y013486D01*
X028446Y013499D01*
X028399Y013515D01*
X028353Y013536D01*
X028309Y013560D01*
X028267Y013587D01*
X028227Y013617D01*
X028190Y013651D01*
X028156Y013688D01*
X028124Y013727D01*
X028096Y013768D01*
X028071Y013812D01*
X028050Y013857D01*
X028033Y013904D01*
X028019Y013952D01*
X028009Y014001D01*
X028003Y014051D01*
X028001Y014101D01*
X008001Y020101D02*
X008003Y020151D01*
X008009Y020201D01*
X008019Y020250D01*
X008033Y020298D01*
X008050Y020345D01*
X008071Y020390D01*
X008096Y020434D01*
X008124Y020475D01*
X008156Y020514D01*
X008190Y020551D01*
X008227Y020585D01*
X008267Y020615D01*
X008309Y020642D01*
X008353Y020666D01*
X008399Y020687D01*
X008446Y020703D01*
X008494Y020716D01*
X008544Y020725D01*
X008593Y020730D01*
X008644Y020731D01*
X008694Y020728D01*
X008743Y020721D01*
X008792Y020710D01*
X008840Y020695D01*
X008886Y020677D01*
X008931Y020655D01*
X008974Y020629D01*
X009015Y020600D01*
X009054Y020568D01*
X009090Y020533D01*
X009122Y020495D01*
X009152Y020455D01*
X009179Y020412D01*
X009202Y020368D01*
X009221Y020322D01*
X009237Y020274D01*
X009249Y020225D01*
X009257Y020176D01*
X009261Y020126D01*
X009261Y020076D01*
X009257Y020026D01*
X009249Y019977D01*
X009237Y019928D01*
X009221Y019880D01*
X009202Y019834D01*
X009179Y019790D01*
X009152Y019747D01*
X009122Y019707D01*
X009090Y019669D01*
X009054Y019634D01*
X009015Y019602D01*
X008974Y019573D01*
X008931Y019547D01*
X008886Y019525D01*
X008840Y019507D01*
X008792Y019492D01*
X008743Y019481D01*
X008694Y019474D01*
X008644Y019471D01*
X008593Y019472D01*
X008544Y019477D01*
X008494Y019486D01*
X008446Y019499D01*
X008399Y019515D01*
X008353Y019536D01*
X008309Y019560D01*
X008267Y019587D01*
X008227Y019617D01*
X008190Y019651D01*
X008156Y019688D01*
X008124Y019727D01*
X008096Y019768D01*
X008071Y019812D01*
X008050Y019857D01*
X008033Y019904D01*
X008019Y019952D01*
X008009Y020001D01*
X008003Y020051D01*
X008001Y020101D01*
D11*
X007121Y000768D02*
X007121Y000731D01*
X007121Y000658D02*
X007121Y000511D01*
X007158Y000511D02*
X007084Y000511D01*
X007010Y000547D02*
X006974Y000511D01*
X006900Y000511D01*
X006864Y000547D01*
X006864Y000621D01*
X006900Y000658D01*
X006974Y000658D01*
X007010Y000621D01*
X007010Y000547D01*
X007121Y000658D02*
X007158Y000658D01*
X007232Y000658D02*
X007342Y000658D01*
X007379Y000621D01*
X007342Y000584D01*
X007269Y000584D01*
X007232Y000547D01*
X007269Y000511D01*
X007379Y000511D01*
X007453Y000511D02*
X007453Y000658D01*
X007600Y000658D02*
X007600Y000547D01*
X007563Y000511D01*
X007453Y000511D01*
X007674Y000731D02*
X007821Y000731D01*
X007821Y000511D01*
X007821Y000621D02*
X007747Y000621D01*
X006789Y000658D02*
X006789Y000511D01*
X006643Y000511D02*
X006643Y000621D01*
X006679Y000658D01*
X006789Y000658D01*
X006347Y000731D02*
X006347Y000511D01*
X006347Y000584D02*
X006237Y000584D01*
X006201Y000621D01*
X006201Y000694D01*
X006237Y000731D01*
X006347Y000731D01*
X006126Y000694D02*
X006126Y000547D01*
X006090Y000511D01*
X006016Y000511D01*
X005980Y000547D01*
X005905Y000511D02*
X005795Y000511D01*
X005759Y000547D01*
X005759Y000584D01*
X005795Y000621D01*
X005905Y000621D01*
X005980Y000694D02*
X006016Y000731D01*
X006090Y000731D01*
X006126Y000694D01*
X005905Y000731D02*
X005905Y000511D01*
X005795Y000621D02*
X005759Y000658D01*
X005759Y000694D01*
X005795Y000731D01*
X005905Y000731D01*
X005463Y000694D02*
X005463Y000547D01*
X005427Y000511D01*
X005353Y000511D01*
X005317Y000547D01*
X005317Y000694D01*
X005353Y000731D01*
X005427Y000731D01*
X005463Y000694D01*
X005242Y000658D02*
X005242Y000511D01*
X005242Y000584D02*
X005169Y000658D01*
X005132Y000658D01*
X005058Y000621D02*
X005022Y000658D01*
X004911Y000658D01*
X004911Y000731D02*
X004911Y000511D01*
X005022Y000511D01*
X005058Y000547D01*
X005058Y000621D01*
X004837Y000621D02*
X004801Y000658D01*
X004727Y000658D01*
X004691Y000621D01*
X004691Y000584D01*
X004837Y000584D01*
X004837Y000547D02*
X004837Y000621D01*
X004837Y000547D02*
X004801Y000511D01*
X004727Y000511D01*
X004616Y000511D02*
X004616Y000658D01*
X004543Y000658D02*
X004506Y000658D01*
X004543Y000658D02*
X004616Y000584D01*
X004211Y000547D02*
X004174Y000511D01*
X004101Y000511D01*
X004064Y000547D01*
X004064Y000584D01*
X004101Y000621D01*
X004138Y000621D01*
X004101Y000621D02*
X004064Y000658D01*
X004064Y000694D01*
X004101Y000731D01*
X004174Y000731D01*
X004211Y000694D01*
X003990Y000694D02*
X003954Y000731D01*
X003880Y000731D01*
X003843Y000694D01*
X003843Y000658D01*
X003880Y000621D01*
X003843Y000584D01*
X003843Y000547D01*
X003880Y000511D01*
X003954Y000511D01*
X003990Y000547D01*
X003917Y000621D02*
X003880Y000621D01*
X003769Y000658D02*
X003733Y000621D01*
X003622Y000621D01*
X003622Y000694D02*
X003622Y000547D01*
X003659Y000511D01*
X003733Y000511D01*
X003769Y000547D01*
X003769Y000658D02*
X003769Y000694D01*
X003733Y000731D01*
X003659Y000731D01*
X003622Y000694D01*
X003548Y000658D02*
X003475Y000731D01*
X003475Y000511D01*
X003548Y000511D02*
X003401Y000511D01*
X003327Y000547D02*
X003327Y000584D01*
X003291Y000621D01*
X003217Y000621D01*
X003180Y000584D01*
X003180Y000547D01*
X003217Y000511D01*
X003291Y000511D01*
X003327Y000547D01*
X003291Y000621D02*
X003327Y000658D01*
X003327Y000694D01*
X003291Y000731D01*
X003217Y000731D01*
X003180Y000694D01*
X003180Y000658D01*
X003217Y000621D01*
M02*
