G75*
G70*
%OFA0B0*%
%FSLAX24Y24*%
%IPPOS*%
%LPD*%
%AMOC8*
5,1,8,0,0,1.08239X$1,22.5*
%
%ADD10C,0.0000*%
%ADD11C,0.0600*%
%ADD12OC8,0.0520*%
%ADD13OC8,0.0600*%
%ADD14C,0.0520*%
%ADD15OC8,0.0630*%
%ADD16C,0.0630*%
%ADD17R,0.0591X0.0177*%
%ADD18C,0.0100*%
%ADD19C,0.0356*%
%ADD20C,0.0160*%
%ADD21C,0.0400*%
%ADD22C,0.0400*%
D10*
X002631Y000101D02*
X002631Y021101D01*
X028031Y021101D01*
X028631Y020501D01*
X028631Y016001D01*
X029631Y015001D01*
X029631Y002101D01*
X028631Y001101D01*
X028631Y000101D01*
X002631Y000101D01*
X028001Y003101D02*
X028003Y003151D01*
X028009Y003201D01*
X028019Y003250D01*
X028033Y003298D01*
X028050Y003345D01*
X028071Y003390D01*
X028096Y003434D01*
X028124Y003475D01*
X028156Y003514D01*
X028190Y003551D01*
X028227Y003585D01*
X028267Y003615D01*
X028309Y003642D01*
X028353Y003666D01*
X028399Y003687D01*
X028446Y003703D01*
X028494Y003716D01*
X028544Y003725D01*
X028593Y003730D01*
X028644Y003731D01*
X028694Y003728D01*
X028743Y003721D01*
X028792Y003710D01*
X028840Y003695D01*
X028886Y003677D01*
X028931Y003655D01*
X028974Y003629D01*
X029015Y003600D01*
X029054Y003568D01*
X029090Y003533D01*
X029122Y003495D01*
X029152Y003455D01*
X029179Y003412D01*
X029202Y003368D01*
X029221Y003322D01*
X029237Y003274D01*
X029249Y003225D01*
X029257Y003176D01*
X029261Y003126D01*
X029261Y003076D01*
X029257Y003026D01*
X029249Y002977D01*
X029237Y002928D01*
X029221Y002880D01*
X029202Y002834D01*
X029179Y002790D01*
X029152Y002747D01*
X029122Y002707D01*
X029090Y002669D01*
X029054Y002634D01*
X029015Y002602D01*
X028974Y002573D01*
X028931Y002547D01*
X028886Y002525D01*
X028840Y002507D01*
X028792Y002492D01*
X028743Y002481D01*
X028694Y002474D01*
X028644Y002471D01*
X028593Y002472D01*
X028544Y002477D01*
X028494Y002486D01*
X028446Y002499D01*
X028399Y002515D01*
X028353Y002536D01*
X028309Y002560D01*
X028267Y002587D01*
X028227Y002617D01*
X028190Y002651D01*
X028156Y002688D01*
X028124Y002727D01*
X028096Y002768D01*
X028071Y002812D01*
X028050Y002857D01*
X028033Y002904D01*
X028019Y002952D01*
X028009Y003001D01*
X028003Y003051D01*
X028001Y003101D01*
X028001Y014101D02*
X028003Y014151D01*
X028009Y014201D01*
X028019Y014250D01*
X028033Y014298D01*
X028050Y014345D01*
X028071Y014390D01*
X028096Y014434D01*
X028124Y014475D01*
X028156Y014514D01*
X028190Y014551D01*
X028227Y014585D01*
X028267Y014615D01*
X028309Y014642D01*
X028353Y014666D01*
X028399Y014687D01*
X028446Y014703D01*
X028494Y014716D01*
X028544Y014725D01*
X028593Y014730D01*
X028644Y014731D01*
X028694Y014728D01*
X028743Y014721D01*
X028792Y014710D01*
X028840Y014695D01*
X028886Y014677D01*
X028931Y014655D01*
X028974Y014629D01*
X029015Y014600D01*
X029054Y014568D01*
X029090Y014533D01*
X029122Y014495D01*
X029152Y014455D01*
X029179Y014412D01*
X029202Y014368D01*
X029221Y014322D01*
X029237Y014274D01*
X029249Y014225D01*
X029257Y014176D01*
X029261Y014126D01*
X029261Y014076D01*
X029257Y014026D01*
X029249Y013977D01*
X029237Y013928D01*
X029221Y013880D01*
X029202Y013834D01*
X029179Y013790D01*
X029152Y013747D01*
X029122Y013707D01*
X029090Y013669D01*
X029054Y013634D01*
X029015Y013602D01*
X028974Y013573D01*
X028931Y013547D01*
X028886Y013525D01*
X028840Y013507D01*
X028792Y013492D01*
X028743Y013481D01*
X028694Y013474D01*
X028644Y013471D01*
X028593Y013472D01*
X028544Y013477D01*
X028494Y013486D01*
X028446Y013499D01*
X028399Y013515D01*
X028353Y013536D01*
X028309Y013560D01*
X028267Y013587D01*
X028227Y013617D01*
X028190Y013651D01*
X028156Y013688D01*
X028124Y013727D01*
X028096Y013768D01*
X028071Y013812D01*
X028050Y013857D01*
X028033Y013904D01*
X028019Y013952D01*
X028009Y014001D01*
X028003Y014051D01*
X028001Y014101D01*
X008001Y020101D02*
X008003Y020151D01*
X008009Y020201D01*
X008019Y020250D01*
X008033Y020298D01*
X008050Y020345D01*
X008071Y020390D01*
X008096Y020434D01*
X008124Y020475D01*
X008156Y020514D01*
X008190Y020551D01*
X008227Y020585D01*
X008267Y020615D01*
X008309Y020642D01*
X008353Y020666D01*
X008399Y020687D01*
X008446Y020703D01*
X008494Y020716D01*
X008544Y020725D01*
X008593Y020730D01*
X008644Y020731D01*
X008694Y020728D01*
X008743Y020721D01*
X008792Y020710D01*
X008840Y020695D01*
X008886Y020677D01*
X008931Y020655D01*
X008974Y020629D01*
X009015Y020600D01*
X009054Y020568D01*
X009090Y020533D01*
X009122Y020495D01*
X009152Y020455D01*
X009179Y020412D01*
X009202Y020368D01*
X009221Y020322D01*
X009237Y020274D01*
X009249Y020225D01*
X009257Y020176D01*
X009261Y020126D01*
X009261Y020076D01*
X009257Y020026D01*
X009249Y019977D01*
X009237Y019928D01*
X009221Y019880D01*
X009202Y019834D01*
X009179Y019790D01*
X009152Y019747D01*
X009122Y019707D01*
X009090Y019669D01*
X009054Y019634D01*
X009015Y019602D01*
X008974Y019573D01*
X008931Y019547D01*
X008886Y019525D01*
X008840Y019507D01*
X008792Y019492D01*
X008743Y019481D01*
X008694Y019474D01*
X008644Y019471D01*
X008593Y019472D01*
X008544Y019477D01*
X008494Y019486D01*
X008446Y019499D01*
X008399Y019515D01*
X008353Y019536D01*
X008309Y019560D01*
X008267Y019587D01*
X008227Y019617D01*
X008190Y019651D01*
X008156Y019688D01*
X008124Y019727D01*
X008096Y019768D01*
X008071Y019812D01*
X008050Y019857D01*
X008033Y019904D01*
X008019Y019952D01*
X008009Y020001D01*
X008003Y020051D01*
X008001Y020101D01*
D11*
X005931Y018701D02*
X005331Y018701D01*
X005331Y017701D02*
X005931Y017701D01*
X005931Y016701D02*
X005331Y016701D01*
X005331Y014701D02*
X005931Y014701D01*
X005931Y013701D02*
X005331Y013701D01*
X005331Y012701D02*
X005931Y012701D01*
X005931Y010701D02*
X005331Y010701D01*
X005331Y009701D02*
X005931Y009701D01*
X005931Y008701D02*
X005331Y008701D01*
X005331Y006701D02*
X005931Y006701D01*
X005931Y005701D02*
X005331Y005701D01*
X005331Y004701D02*
X005931Y004701D01*
X005931Y002601D02*
X005331Y002601D01*
X005331Y001601D02*
X005931Y001601D01*
X013331Y006601D02*
X013931Y006601D01*
X013931Y007601D02*
X013331Y007601D01*
X013331Y008601D02*
X013931Y008601D01*
X013931Y009601D02*
X013331Y009601D01*
X013331Y010601D02*
X013931Y010601D01*
X013931Y011601D02*
X013331Y011601D01*
X013331Y012601D02*
X013931Y012601D01*
X013931Y013601D02*
X013331Y013601D01*
X017556Y015701D02*
X018156Y015701D01*
X018156Y016701D02*
X017556Y016701D01*
X017556Y017701D02*
X018156Y017701D01*
X018031Y019801D02*
X018031Y020401D01*
X019031Y020401D02*
X019031Y019801D01*
X020631Y019801D02*
X020631Y020401D01*
X021631Y020401D02*
X021631Y019801D01*
X022631Y019801D02*
X022631Y020401D01*
X023631Y020401D02*
X023631Y019801D01*
X024631Y019801D02*
X024631Y020401D01*
X025631Y020401D02*
X025631Y019801D01*
X026631Y019801D02*
X026631Y020401D01*
X027631Y020401D02*
X027631Y019801D01*
X019931Y013601D02*
X019331Y013601D01*
X019331Y012601D02*
X019931Y012601D01*
X019931Y011601D02*
X019331Y011601D01*
X019331Y010601D02*
X019931Y010601D01*
X019931Y009601D02*
X019331Y009601D01*
X019331Y008601D02*
X019931Y008601D01*
X019931Y007601D02*
X019331Y007601D01*
X019331Y006601D02*
X019931Y006601D01*
X026931Y006801D02*
X027531Y006801D01*
X027531Y007801D02*
X026931Y007801D01*
X026931Y008801D02*
X027531Y008801D01*
X027531Y009801D02*
X026931Y009801D01*
X026931Y010801D02*
X027531Y010801D01*
X027531Y011801D02*
X026931Y011801D01*
X026931Y005801D02*
X027531Y005801D01*
X027631Y001401D02*
X027631Y000801D01*
X026631Y000801D02*
X026631Y001401D01*
X025631Y001401D02*
X025631Y000801D01*
X024631Y000801D02*
X024631Y001401D01*
X023631Y001401D02*
X023631Y000801D01*
X022631Y000801D02*
X022631Y001401D01*
X020631Y001401D02*
X020631Y000801D01*
X019631Y000801D02*
X019631Y001401D01*
X018631Y001401D02*
X018631Y000801D01*
X017631Y000801D02*
X017631Y001401D01*
X016631Y001401D02*
X016631Y000801D01*
X015631Y000801D02*
X015631Y001401D01*
X016031Y019801D02*
X016031Y020401D01*
X017031Y020401D02*
X017031Y019801D01*
X015031Y019801D02*
X015031Y020401D01*
X014031Y020401D02*
X014031Y019801D01*
X013031Y019801D02*
X013031Y020401D01*
X012031Y020401D02*
X012031Y019801D01*
D12*
X010931Y017701D03*
X006931Y017701D03*
X006931Y013701D03*
X010931Y013701D03*
X010931Y009701D03*
X006931Y009701D03*
X006931Y005701D03*
X010931Y005701D03*
X014331Y004601D03*
X014331Y003601D03*
X018331Y003601D03*
X018331Y004601D03*
X021331Y012701D03*
X021331Y016701D03*
D13*
X022731Y016701D03*
X023731Y016701D03*
X023731Y017701D03*
X022731Y017701D03*
X022731Y015701D03*
X023731Y015701D03*
X024131Y010801D03*
X023131Y010801D03*
X023131Y009801D03*
X024131Y009801D03*
X024131Y008801D03*
X023131Y008801D03*
X023131Y007801D03*
X024131Y007801D03*
X024131Y006801D03*
X023131Y006801D03*
X022431Y004601D03*
X021431Y004601D03*
X020431Y004601D03*
X019431Y004601D03*
X019431Y003601D03*
X020431Y003601D03*
X021431Y003601D03*
X022431Y003601D03*
X013331Y003601D03*
X012331Y003601D03*
X012331Y004601D03*
X013331Y004601D03*
X013331Y002601D03*
X013331Y001601D03*
X012331Y001601D03*
X012331Y002601D03*
D14*
X026631Y015751D03*
X025631Y016251D03*
X026631Y016751D03*
X025631Y017251D03*
X026631Y017751D03*
X025631Y018251D03*
D15*
X019881Y017701D03*
D16*
X019881Y016701D03*
D17*
X017690Y010976D03*
X017690Y010726D03*
X017690Y010476D03*
X017690Y010226D03*
X017690Y009976D03*
X017690Y009726D03*
X017690Y009476D03*
X017690Y009226D03*
X015571Y009226D03*
X015571Y009476D03*
X015571Y009726D03*
X015571Y009976D03*
X015571Y010226D03*
X015571Y010476D03*
X015571Y010726D03*
X015571Y010976D03*
D18*
X015256Y010976D01*
X014506Y013476D01*
X013631Y013601D01*
X013631Y012601D02*
X014381Y012226D01*
X015131Y010726D01*
X015571Y010726D01*
X015571Y010476D02*
X015131Y010476D01*
X013631Y011601D01*
X013631Y010601D02*
X014381Y010601D01*
X015131Y010226D01*
X015571Y010226D01*
X015571Y009976D02*
X015131Y009976D01*
X014381Y009601D01*
X013631Y009601D01*
X013631Y008601D02*
X015131Y009726D01*
X015571Y009726D01*
X015571Y009476D02*
X015131Y009476D01*
X014381Y007851D01*
X013631Y007601D01*
X013631Y006601D02*
X014506Y006851D01*
X015256Y009226D01*
X015571Y009226D01*
X017690Y009226D02*
X018006Y009226D01*
X018756Y006851D01*
X019631Y006601D01*
X019631Y007601D02*
X018881Y007851D01*
X018131Y009476D01*
X017690Y009476D01*
X017690Y009726D02*
X018131Y009726D01*
X019631Y008601D01*
X019631Y009601D02*
X018881Y009601D01*
X018131Y009976D01*
X017690Y009976D01*
X017690Y010226D02*
X018131Y010226D01*
X018881Y010601D01*
X019631Y010601D01*
X019631Y011601D02*
X018131Y010476D01*
X017690Y010476D01*
X017690Y010726D02*
X018131Y010726D01*
X018881Y012226D01*
X019631Y012601D01*
X019631Y013601D02*
X018756Y013476D01*
X018006Y010976D01*
X017690Y010976D01*
D19*
X020631Y009301D03*
X025331Y011501D03*
X026031Y012101D03*
X013031Y014301D03*
D20*
X018631Y014301D01*
X019231Y013601D01*
X019631Y013601D01*
X022731Y015701D02*
X023231Y016201D01*
X023231Y018401D01*
X024031Y019001D01*
X025931Y019001D01*
X026631Y018401D01*
X026631Y017751D01*
X026031Y012101D02*
X024931Y012101D01*
X024931Y005901D01*
X021831Y005901D01*
X021431Y005501D01*
X021431Y004601D01*
X021931Y004901D02*
X022331Y005301D01*
X025631Y005301D01*
X026031Y005701D01*
X026031Y010801D01*
X025331Y011501D01*
X023131Y010801D02*
X023131Y009801D01*
X023131Y008801D01*
X023131Y007801D01*
X023131Y006801D01*
X020631Y008001D02*
X020631Y009301D01*
X020631Y008001D02*
X020331Y007601D01*
X019631Y007601D01*
X021931Y004901D02*
X021931Y004101D01*
X021431Y003601D01*
X022431Y003601D02*
X025131Y003601D01*
X026631Y002101D01*
X026631Y001101D01*
X027631Y001101D02*
X027631Y001801D01*
X024831Y004601D01*
X022431Y004601D01*
X019431Y004601D02*
X018331Y004601D01*
X018131Y004601D01*
X018131Y003601D02*
X018331Y003601D01*
X019431Y003601D01*
D21*
X020631Y002701D02*
X020631Y001101D01*
X017631Y001101D02*
X017631Y004001D01*
X014931Y004001D01*
X014331Y004601D01*
X015331Y005601D01*
X020231Y005601D01*
X021331Y006601D01*
X021331Y010401D01*
X020031Y011601D01*
X021831Y011601D01*
X024131Y013901D01*
X026331Y013901D01*
X027231Y011801D01*
X026831Y012701D01*
X026331Y013901D02*
X027531Y016001D01*
X027531Y017701D01*
X027481Y017751D01*
X026631Y017751D01*
X026631Y015751D02*
X025631Y014901D01*
X012631Y014901D01*
X012131Y014401D01*
X012131Y006501D01*
X013331Y005201D01*
X013331Y004601D01*
X014331Y004601D02*
X014331Y003601D01*
X013331Y003601D01*
X012331Y003601D02*
X012331Y002601D01*
X012331Y001601D01*
X013331Y001601D02*
X013331Y000701D01*
X007725Y000701D01*
X006789Y001600D01*
X005631Y001601D01*
X005631Y004701D02*
X004631Y004701D01*
X004631Y008701D01*
X004631Y012701D01*
X004631Y016701D01*
X004631Y019401D01*
X006431Y019401D01*
X009731Y016701D01*
X017856Y016701D01*
X019881Y016701D01*
X020031Y011601D02*
X019631Y011601D01*
X012331Y004601D02*
X008031Y004601D01*
X006931Y005701D01*
X006931Y009701D01*
X006931Y013701D01*
X006931Y017701D01*
X005631Y017701D01*
X005631Y016701D02*
X004631Y016701D01*
X005631Y013701D02*
X006931Y013701D01*
X005631Y012701D02*
X004631Y012701D01*
X005631Y009701D02*
X006931Y009701D01*
X005631Y008701D02*
X004631Y008701D01*
X005631Y005701D02*
X006931Y005701D01*
X012331Y004601D02*
X012331Y003601D01*
D22*
X020631Y002701D03*
M02*
