%
M48
M72
T01C0.0157
T02C0.0236
T03C0.0320
T04C0.0400
T05C0.1260
%
T01
X20631Y2701
T02
X20631Y9301
X25331Y11501
X26031Y12101
X13031Y14301
T03
X10931Y13701
X6931Y13701
X6931Y9701
X10931Y9701
X10931Y5701
X14331Y4601
X14331Y3601
X18331Y3601
X18331Y4601
X6931Y5701
X21331Y12701
X25631Y16251
X26631Y16751
X25631Y17251
X26631Y17751
X25631Y18251
X26631Y15751
X21331Y16701
X19881Y16701
X19881Y17701
X10931Y17701
X6931Y17701
T04
X5631Y1601
X5631Y2601
X5631Y4701
X5631Y5701
X5631Y6701
X5631Y8701
X5631Y9701
X5631Y10701
X5631Y12701
X5631Y13701
X5631Y14701
X5631Y16701
X5631Y17701
X5631Y18701
X12031Y20101
X13031Y20101
X14031Y20101
X15031Y20101
X16031Y20101
X17031Y20101
X18031Y20101
X19031Y20101
X20631Y20101
X21631Y20101
X22631Y20101
X23631Y20101
X24631Y20101
X25631Y20101
X26631Y20101
X27631Y20101
X23731Y17701
X22731Y17701
X22731Y16701
X23731Y16701
X23731Y15701
X22731Y15701
X19631Y13601
X19631Y12601
X19631Y11601
X19631Y10601
X19631Y9601
X19631Y8601
X19631Y7601
X19631Y6601
X19431Y4601
X20431Y4601
X21431Y4601
X22431Y4601
X22431Y3601
X21431Y3601
X20431Y3601
X19431Y3601
X19631Y1101
X18631Y1101
X17631Y1101
X16631Y1101
X15631Y1101
X13331Y1601
X13331Y2601
X12331Y2601
X12331Y1601
X12331Y3601
X13331Y3601
X13331Y4601
X12331Y4601
X13631Y6601
X13631Y7601
X13631Y8601
X13631Y9601
X13631Y10601
X13631Y11601
X13631Y12601
X13631Y13601
X17856Y15701
X17856Y16701
X17856Y17701
X27231Y11801
X27231Y10801
X27231Y9801
X27231Y8801
X27231Y7801
X27231Y6801
X27231Y5801
X24131Y6801
X24131Y7801
X23131Y7801
X23131Y6801
X23131Y8801
X24131Y8801
X24131Y9801
X23131Y9801
X23131Y10801
X24131Y10801
X24631Y1101
X25631Y1101
X26631Y1101
X27631Y1101
X23631Y1101
X22631Y1101
X20631Y1101
T05
X28631Y3101
X28631Y14101
X8631Y20101
M30
