G75*
G70*
%OFA0B0*%
%FSLAX24Y24*%
%IPPOS*%
%LPD*%
%AMOC8*
5,1,8,0,0,1.08239X$1,22.5*
%
%ADD10C,0.0030*%
%ADD11C,0.0000*%
%ADD12C,0.0060*%
%ADD13C,0.0020*%
%ADD14R,0.0300X0.4200*%
%ADD15R,0.0200X0.0750*%
%ADD16R,0.0200X0.0300*%
%ADD17C,0.0050*%
%ADD18C,0.0300*%
%ADD19R,0.0400X0.0300*%
%ADD20C,0.0040*%
%ADD21R,0.0340X0.0240*%
%ADD22R,0.0240X0.0340*%
%ADD23C,0.0080*%
%ADD24C,0.0070*%
%ADD25C,0.0100*%
%ADD26C,0.0236*%
%ADD27R,0.0300X0.0300*%
D10*
X006346Y004661D02*
X006539Y004661D01*
X006442Y005564D02*
X006442Y005758D01*
X006346Y005661D02*
X006539Y005661D01*
X006542Y006616D02*
X006494Y006664D01*
X006494Y006858D01*
X006446Y006809D02*
X006542Y006809D01*
X006690Y006809D02*
X006787Y006809D01*
X006835Y006761D01*
X006835Y006616D01*
X006690Y006616D01*
X006642Y006664D01*
X006690Y006713D01*
X006835Y006713D01*
X006937Y006761D02*
X006937Y006664D01*
X006985Y006616D01*
X007130Y006616D01*
X007231Y006616D02*
X007231Y006906D01*
X007280Y006809D02*
X007376Y006809D01*
X007425Y006761D01*
X007425Y006616D01*
X007280Y006809D02*
X007231Y006761D01*
X007130Y006809D02*
X006985Y006809D01*
X006937Y006761D01*
X006539Y008661D02*
X006346Y008661D01*
X006442Y009564D02*
X006442Y009758D01*
X006346Y009661D02*
X006539Y009661D01*
X006542Y010616D02*
X006494Y010664D01*
X006494Y010858D01*
X006446Y010809D02*
X006542Y010809D01*
X006690Y010809D02*
X006787Y010809D01*
X006835Y010761D01*
X006835Y010616D01*
X006690Y010616D01*
X006642Y010664D01*
X006690Y010713D01*
X006835Y010713D01*
X006937Y010761D02*
X006937Y010664D01*
X006985Y010616D01*
X007130Y010616D01*
X007231Y010616D02*
X007231Y010906D01*
X007280Y010809D02*
X007376Y010809D01*
X007425Y010761D01*
X007425Y010616D01*
X007280Y010809D02*
X007231Y010761D01*
X007130Y010809D02*
X006985Y010809D01*
X006937Y010761D01*
X006539Y012661D02*
X006346Y012661D01*
X006442Y013564D02*
X006442Y013758D01*
X006346Y013661D02*
X006539Y013661D01*
X006542Y014616D02*
X006494Y014664D01*
X006494Y014858D01*
X006446Y014809D02*
X006542Y014809D01*
X006690Y014809D02*
X006787Y014809D01*
X006835Y014761D01*
X006835Y014616D01*
X006690Y014616D01*
X006642Y014664D01*
X006690Y014713D01*
X006835Y014713D01*
X006937Y014761D02*
X006937Y014664D01*
X006985Y014616D01*
X007130Y014616D01*
X007231Y014616D02*
X007231Y014906D01*
X007280Y014809D02*
X007376Y014809D01*
X007425Y014761D01*
X007425Y014616D01*
X007280Y014809D02*
X007231Y014761D01*
X007130Y014809D02*
X006985Y014809D01*
X006937Y014761D01*
X008146Y014716D02*
X008331Y014716D01*
X008392Y014777D01*
X008331Y014839D01*
X008207Y014839D01*
X008146Y014901D01*
X008207Y014963D01*
X008392Y014963D01*
X008514Y014963D02*
X008576Y014963D01*
X008637Y014901D01*
X008699Y014963D01*
X008761Y014901D01*
X008761Y014716D01*
X008637Y014716D02*
X008637Y014901D01*
X008514Y014963D02*
X008514Y014716D01*
X008882Y014777D02*
X008944Y014839D01*
X009129Y014839D01*
X009129Y014901D02*
X009129Y014716D01*
X008944Y014716D01*
X008882Y014777D01*
X008944Y014963D02*
X009067Y014963D01*
X009129Y014901D01*
X009250Y015086D02*
X009312Y015086D01*
X009312Y014716D01*
X009250Y014716D02*
X009374Y014716D01*
X009496Y014716D02*
X009619Y014716D01*
X009558Y014716D02*
X009558Y015086D01*
X009496Y015086D01*
X009741Y014901D02*
X009803Y014963D01*
X009988Y014963D01*
X010110Y014901D02*
X010171Y014963D01*
X010295Y014963D01*
X010357Y014901D01*
X010357Y014716D01*
X010478Y014716D02*
X010602Y014716D01*
X010540Y014716D02*
X010540Y014963D01*
X010478Y014963D01*
X010540Y015086D02*
X010540Y015148D01*
X010724Y014963D02*
X010724Y014716D01*
X010724Y014839D02*
X010847Y014963D01*
X010909Y014963D01*
X011031Y014901D02*
X011092Y014963D01*
X011216Y014963D01*
X011277Y014901D01*
X011277Y014839D01*
X011031Y014839D01*
X011031Y014777D02*
X011031Y014901D01*
X011031Y014777D02*
X011092Y014716D01*
X011216Y014716D01*
X011399Y014716D02*
X011461Y014716D01*
X011461Y014777D01*
X011399Y014777D01*
X011399Y014716D01*
X011583Y014777D02*
X011583Y014901D01*
X011645Y014963D01*
X011768Y014963D01*
X011830Y014901D01*
X011830Y014777D01*
X011768Y014716D01*
X011645Y014716D01*
X011583Y014777D01*
X011951Y014716D02*
X011951Y014963D01*
X011951Y014839D02*
X012075Y014963D01*
X012136Y014963D01*
X012258Y014901D02*
X012258Y014777D01*
X012320Y014716D01*
X012505Y014716D01*
X012505Y014654D02*
X012505Y014963D01*
X012320Y014963D01*
X012258Y014901D01*
X012505Y014654D02*
X012443Y014592D01*
X012382Y014592D01*
X012626Y014716D02*
X012688Y014716D01*
X012688Y014777D01*
X012626Y014777D01*
X012626Y014716D01*
X012811Y014777D02*
X012811Y014963D01*
X012811Y014777D02*
X012872Y014716D01*
X013057Y014716D01*
X013057Y014963D01*
X013179Y015086D02*
X013179Y014716D01*
X013179Y014839D02*
X013364Y014963D01*
X013179Y014839D02*
X013364Y014716D01*
X010110Y014716D02*
X010110Y015086D01*
X009927Y014839D02*
X009803Y014839D01*
X009741Y014901D01*
X009741Y014716D02*
X009927Y014716D01*
X009988Y014777D01*
X009927Y014839D01*
X006539Y016661D02*
X006346Y016661D01*
X006442Y017564D02*
X006442Y017758D01*
X006346Y017661D02*
X006539Y017661D01*
X006542Y018616D02*
X006494Y018664D01*
X006494Y018858D01*
X006446Y018809D02*
X006542Y018809D01*
X006690Y018809D02*
X006787Y018809D01*
X006835Y018761D01*
X006835Y018616D01*
X006690Y018616D01*
X006642Y018664D01*
X006690Y018713D01*
X006835Y018713D01*
X006937Y018761D02*
X006937Y018664D01*
X006985Y018616D01*
X007130Y018616D01*
X007231Y018616D02*
X007231Y018906D01*
X007280Y018809D02*
X007376Y018809D01*
X007425Y018761D01*
X007425Y018616D01*
X007280Y018809D02*
X007231Y018761D01*
X007130Y018809D02*
X006985Y018809D01*
X006937Y018761D01*
X011845Y018752D02*
X012216Y018752D01*
X012216Y018999D01*
X012216Y019121D02*
X011845Y019121D01*
X011845Y019368D01*
X012030Y019244D02*
X012030Y019121D01*
X011845Y018999D02*
X011845Y018752D01*
X011907Y018631D02*
X012030Y018631D01*
X012092Y018569D01*
X012092Y018384D01*
X012092Y018508D02*
X012216Y018631D01*
X012030Y018752D02*
X012030Y018876D01*
X011907Y018631D02*
X011845Y018569D01*
X011845Y018384D01*
X012216Y018384D01*
X012216Y018263D02*
X011969Y018263D01*
X011845Y018139D01*
X011969Y018016D01*
X012216Y018016D01*
X012030Y018016D02*
X012030Y018263D01*
X012845Y018377D02*
X012907Y018316D01*
X013154Y018316D01*
X013216Y018377D01*
X013216Y018501D01*
X013154Y018563D01*
X013030Y018563D01*
X013030Y018439D01*
X012907Y018563D02*
X012845Y018501D01*
X012845Y018377D01*
X012845Y018684D02*
X013216Y018931D01*
X012845Y018931D01*
X012845Y019052D02*
X012845Y019238D01*
X012907Y019299D01*
X013154Y019299D01*
X013216Y019238D01*
X013216Y019052D01*
X012845Y019052D01*
X012845Y018684D02*
X013216Y018684D01*
X013845Y018839D02*
X014216Y018839D01*
X014216Y018716D02*
X014216Y018963D01*
X014154Y019084D02*
X014216Y019146D01*
X014216Y019269D01*
X014154Y019331D01*
X014092Y019331D01*
X014030Y019269D01*
X014030Y019208D01*
X014030Y019269D02*
X013969Y019331D01*
X013907Y019331D01*
X013845Y019269D01*
X013845Y019146D01*
X013907Y019084D01*
X013845Y018839D02*
X013969Y018716D01*
X014845Y018839D02*
X015216Y018839D01*
X015216Y018716D02*
X015216Y018963D01*
X015216Y019084D02*
X014969Y019331D01*
X014907Y019331D01*
X014845Y019269D01*
X014845Y019146D01*
X014907Y019084D01*
X014845Y018839D02*
X014969Y018716D01*
X015216Y019084D02*
X015216Y019331D01*
X015845Y019208D02*
X016216Y019208D01*
X016216Y019331D02*
X016216Y019084D01*
X016216Y018963D02*
X016216Y018716D01*
X016216Y018839D02*
X015845Y018839D01*
X015969Y018716D01*
X015969Y019084D02*
X015845Y019208D01*
X016746Y019163D02*
X016869Y019286D01*
X016869Y018916D01*
X016746Y018916D02*
X016992Y018916D01*
X017114Y018977D02*
X017361Y019224D01*
X017361Y018977D01*
X017299Y018916D01*
X017176Y018916D01*
X017114Y018977D01*
X017114Y019224D01*
X017176Y019286D01*
X017299Y019286D01*
X017361Y019224D01*
X017845Y019201D02*
X017845Y019077D01*
X017907Y019016D01*
X017969Y019016D01*
X018030Y019077D01*
X018030Y019263D01*
X017907Y019263D02*
X017845Y019201D01*
X017907Y019263D02*
X018154Y019263D01*
X018216Y019201D01*
X018216Y019077D01*
X018154Y019016D01*
X018945Y019077D02*
X018945Y019201D01*
X019007Y019263D01*
X019069Y019263D01*
X019130Y019201D01*
X019130Y019077D01*
X019069Y019016D01*
X019007Y019016D01*
X018945Y019077D01*
X019130Y019077D02*
X019192Y019016D01*
X019254Y019016D01*
X019316Y019077D01*
X019316Y019201D01*
X019254Y019263D01*
X019192Y019263D01*
X019130Y019201D01*
X020444Y019257D02*
X020444Y019011D01*
X020444Y019257D02*
X020506Y019257D01*
X020753Y019011D01*
X020815Y019011D01*
X021419Y019257D02*
X021481Y019134D01*
X021605Y019011D01*
X021605Y019196D01*
X021666Y019257D01*
X021728Y019257D01*
X021790Y019196D01*
X021790Y019072D01*
X021728Y019011D01*
X021605Y019011D01*
X022519Y019011D02*
X022705Y019011D01*
X022643Y019134D01*
X022643Y019196D01*
X022705Y019257D01*
X022828Y019257D01*
X022890Y019196D01*
X022890Y019072D01*
X022828Y019011D01*
X022519Y019011D02*
X022519Y019257D01*
X023444Y019196D02*
X023630Y019011D01*
X023630Y019257D01*
X023815Y019196D02*
X023444Y019196D01*
X024419Y019196D02*
X024419Y019072D01*
X024481Y019011D01*
X024605Y019134D02*
X024605Y019196D01*
X024666Y019257D01*
X024728Y019257D01*
X024790Y019196D01*
X024790Y019072D01*
X024728Y019011D01*
X024605Y019196D02*
X024543Y019257D01*
X024481Y019257D01*
X024419Y019196D01*
X027444Y019196D02*
X027444Y019072D01*
X027506Y019011D01*
X027753Y019011D01*
X027506Y019257D01*
X027753Y019257D01*
X027815Y019196D01*
X027815Y019072D01*
X027753Y019011D01*
X027506Y019257D02*
X027444Y019196D01*
X026412Y014686D02*
X026289Y014686D01*
X026227Y014624D01*
X026227Y014377D01*
X026289Y014316D01*
X026412Y014316D01*
X026474Y014377D01*
X026106Y014316D02*
X025859Y014316D01*
X026106Y014563D01*
X026106Y014624D01*
X026044Y014686D01*
X025921Y014686D01*
X025859Y014624D01*
X025737Y014686D02*
X025613Y014686D01*
X025675Y014686D02*
X025675Y014316D01*
X025613Y014316D02*
X025737Y014316D01*
X026412Y014686D02*
X026474Y014624D01*
X026846Y012686D02*
X026846Y012501D01*
X026969Y012563D01*
X027031Y012563D01*
X027092Y012501D01*
X027092Y012377D01*
X027031Y012316D01*
X026907Y012316D01*
X026846Y012377D01*
X027214Y012439D02*
X027337Y012316D01*
X027461Y012439D01*
X027461Y012686D01*
X027214Y012686D02*
X027214Y012439D01*
X027092Y012686D02*
X026846Y012686D01*
X026431Y010986D02*
X026307Y010986D01*
X026246Y010924D01*
X026246Y010677D01*
X026492Y010924D01*
X026492Y010677D01*
X026431Y010616D01*
X026307Y010616D01*
X026246Y010677D01*
X026492Y010924D02*
X026431Y010986D01*
X026369Y009986D02*
X026246Y009863D01*
X026369Y009986D02*
X026369Y009616D01*
X026246Y009616D02*
X026492Y009616D01*
X026431Y008986D02*
X026307Y008986D01*
X026246Y008924D01*
X026431Y008986D02*
X026492Y008924D01*
X026492Y008863D01*
X026246Y008616D01*
X026492Y008616D01*
X026431Y007986D02*
X026307Y007986D01*
X026246Y007924D01*
X026369Y007801D02*
X026431Y007801D01*
X026492Y007739D01*
X026492Y007677D01*
X026431Y007616D01*
X026307Y007616D01*
X026246Y007677D01*
X026431Y007801D02*
X026492Y007863D01*
X026492Y007924D01*
X026431Y007986D01*
X026431Y006986D02*
X026246Y006801D01*
X026492Y006801D01*
X026431Y006616D02*
X026431Y006986D01*
X026807Y005286D02*
X026746Y005224D01*
X026746Y004977D01*
X026807Y004916D01*
X026931Y004916D01*
X026992Y004977D01*
X026992Y005101D01*
X026869Y005101D01*
X026992Y005224D02*
X026931Y005286D01*
X026807Y005286D01*
X027114Y005286D02*
X027361Y004916D01*
X027361Y005286D01*
X027482Y005286D02*
X027667Y005286D01*
X027729Y005224D01*
X027729Y004977D01*
X027667Y004916D01*
X027482Y004916D01*
X027482Y005286D01*
X027114Y005286D02*
X027114Y004916D01*
X027545Y002163D02*
X027545Y001916D01*
X027730Y001916D01*
X027669Y002039D01*
X027669Y002101D01*
X027730Y002163D01*
X027854Y002163D01*
X027916Y002101D01*
X027916Y001977D01*
X027854Y001916D01*
X026816Y002101D02*
X026445Y002101D01*
X026630Y001916D01*
X026630Y002163D01*
X025916Y002101D02*
X025916Y001977D01*
X025854Y001916D01*
X025730Y002039D02*
X025730Y002101D01*
X025792Y002163D01*
X025854Y002163D01*
X025916Y002101D01*
X025730Y002101D02*
X025669Y002163D01*
X025607Y002163D01*
X025545Y002101D01*
X025545Y001977D01*
X025607Y001916D01*
X024916Y001916D02*
X024669Y002163D01*
X024607Y002163D01*
X024545Y002101D01*
X024545Y001977D01*
X024607Y001916D01*
X024916Y001916D02*
X024916Y002163D01*
X023916Y002163D02*
X023916Y001916D01*
X023916Y002039D02*
X023545Y002039D01*
X023669Y001916D01*
X022916Y001977D02*
X022854Y001916D01*
X022607Y002163D01*
X022854Y002163D01*
X022916Y002101D01*
X022916Y001977D01*
X022854Y001916D02*
X022607Y001916D01*
X022545Y001977D01*
X022545Y002101D01*
X022607Y002163D01*
X021060Y002046D02*
X021060Y001861D01*
X021060Y002046D02*
X020998Y002107D01*
X020813Y002107D01*
X020813Y001861D01*
X020691Y001861D02*
X020567Y001861D01*
X020629Y001861D02*
X020629Y002107D01*
X020567Y002107D01*
X020629Y002231D02*
X020629Y002293D01*
X020446Y002231D02*
X020446Y001984D01*
X020322Y001861D01*
X020199Y001984D01*
X020199Y002231D01*
X019582Y002169D02*
X019582Y001922D01*
X019521Y001861D01*
X019335Y001861D01*
X019335Y002231D01*
X019521Y002231D01*
X019582Y002169D01*
X019214Y002231D02*
X019214Y001861D01*
X018967Y002231D01*
X018967Y001861D01*
X018846Y001922D02*
X018846Y002046D01*
X018722Y002046D01*
X018599Y002169D02*
X018599Y001922D01*
X018661Y001861D01*
X018784Y001861D01*
X018846Y001922D01*
X018846Y002169D02*
X018784Y002231D01*
X018661Y002231D01*
X018599Y002169D01*
X017914Y002231D02*
X017914Y001984D01*
X017791Y001861D01*
X017667Y001984D01*
X017667Y002231D01*
X017546Y002231D02*
X017299Y002231D01*
X017299Y002046D01*
X017422Y002107D01*
X017484Y002107D01*
X017546Y002046D01*
X017546Y001922D01*
X017484Y001861D01*
X017361Y001861D01*
X017299Y001922D01*
X016804Y001922D02*
X016742Y001861D01*
X016804Y001922D02*
X016804Y002046D01*
X016742Y002107D01*
X016680Y002107D01*
X016619Y002046D01*
X016619Y001984D01*
X016619Y002046D02*
X016557Y002107D01*
X016495Y002107D01*
X016434Y002046D01*
X016434Y001922D01*
X016495Y001861D01*
X016434Y002229D02*
X016680Y002229D01*
X016804Y002352D01*
X016680Y002476D01*
X016434Y002476D01*
X016495Y002597D02*
X016434Y002659D01*
X016434Y002782D01*
X016495Y002844D01*
X016557Y002844D01*
X016619Y002782D01*
X016680Y002844D01*
X016742Y002844D01*
X016804Y002782D01*
X016804Y002659D01*
X016742Y002597D01*
X016619Y002721D02*
X016619Y002782D01*
X015854Y002721D02*
X015484Y002721D01*
X015484Y002844D02*
X015484Y002597D01*
X015545Y002476D02*
X015484Y002414D01*
X015484Y002291D01*
X015545Y002229D01*
X015607Y002229D01*
X015669Y002291D01*
X015669Y002414D01*
X015730Y002476D01*
X015792Y002476D01*
X015854Y002414D01*
X015854Y002291D01*
X015792Y002229D01*
X015854Y002107D02*
X015730Y001984D01*
X015730Y002046D02*
X015730Y001861D01*
X015854Y001861D02*
X015484Y001861D01*
X015484Y002046D01*
X015545Y002107D01*
X015669Y002107D01*
X015730Y002046D01*
X011530Y002416D02*
X011530Y002561D01*
X011482Y002609D01*
X011337Y002609D01*
X011337Y002416D01*
X011237Y002416D02*
X011140Y002416D01*
X011189Y002416D02*
X011189Y002609D01*
X011140Y002609D01*
X011189Y002706D02*
X011189Y002754D01*
X011039Y002706D02*
X011039Y002513D01*
X010942Y002416D01*
X010846Y002513D01*
X010846Y002706D01*
X011094Y003416D02*
X011046Y003464D01*
X011094Y003416D02*
X011191Y003416D01*
X011239Y003464D01*
X011239Y003561D01*
X011191Y003609D01*
X011142Y003609D01*
X011046Y003561D01*
X011046Y003706D01*
X011239Y003706D01*
X011340Y003706D02*
X011340Y003513D01*
X011437Y003416D01*
X011534Y003513D01*
X011534Y003706D01*
X011623Y004416D02*
X011429Y004609D01*
X011328Y004609D02*
X011328Y004416D01*
X011183Y004416D01*
X011135Y004464D01*
X011135Y004609D01*
X011034Y004561D02*
X011034Y004416D01*
X010889Y004416D01*
X010840Y004464D01*
X010889Y004513D01*
X011034Y004513D01*
X011034Y004561D02*
X010985Y004609D01*
X010889Y004609D01*
X010739Y004513D02*
X010739Y004706D01*
X010546Y004706D02*
X010546Y004513D01*
X010642Y004416D01*
X010739Y004513D01*
X011429Y004416D02*
X011623Y004609D01*
X010937Y001806D02*
X010889Y001758D01*
X010889Y001516D01*
X010937Y001661D02*
X010840Y001661D01*
X010739Y001613D02*
X010642Y001516D01*
X010546Y001613D01*
X010546Y001806D01*
X010739Y001806D02*
X010739Y001613D01*
X011037Y001564D02*
X011085Y001516D01*
X011230Y001516D01*
X011230Y001661D01*
X011182Y001709D01*
X011085Y001709D01*
X011085Y001613D02*
X011230Y001613D01*
X011331Y001709D02*
X011476Y001709D01*
X011525Y001661D01*
X011525Y001516D01*
X011331Y001516D02*
X011331Y001709D01*
X011085Y001613D02*
X011037Y001564D01*
X022146Y006801D02*
X022392Y006801D01*
X022331Y006616D02*
X022331Y006986D01*
X022146Y006801D01*
X022207Y007616D02*
X022146Y007677D01*
X022207Y007616D02*
X022331Y007616D01*
X022392Y007677D01*
X022392Y007739D01*
X022331Y007801D01*
X022269Y007801D01*
X022331Y007801D02*
X022392Y007863D01*
X022392Y007924D01*
X022331Y007986D01*
X022207Y007986D01*
X022146Y007924D01*
X022146Y008616D02*
X022392Y008863D01*
X022392Y008924D01*
X022331Y008986D01*
X022207Y008986D01*
X022146Y008924D01*
X022146Y008616D02*
X022392Y008616D01*
X022392Y009616D02*
X022146Y009616D01*
X022269Y009616D02*
X022269Y009986D01*
X022146Y009863D01*
X022207Y010616D02*
X022146Y010677D01*
X022392Y010924D01*
X022392Y010677D01*
X022331Y010616D01*
X022207Y010616D01*
X022146Y010677D02*
X022146Y010924D01*
X022207Y010986D01*
X022331Y010986D01*
X022392Y010924D01*
D11*
X028001Y014101D02*
X028003Y014151D01*
X028009Y014201D01*
X028019Y014250D01*
X028033Y014298D01*
X028050Y014345D01*
X028071Y014390D01*
X028096Y014434D01*
X028124Y014475D01*
X028156Y014514D01*
X028190Y014551D01*
X028227Y014585D01*
X028267Y014615D01*
X028309Y014642D01*
X028353Y014666D01*
X028399Y014687D01*
X028446Y014703D01*
X028494Y014716D01*
X028544Y014725D01*
X028593Y014730D01*
X028644Y014731D01*
X028694Y014728D01*
X028743Y014721D01*
X028792Y014710D01*
X028840Y014695D01*
X028886Y014677D01*
X028931Y014655D01*
X028974Y014629D01*
X029015Y014600D01*
X029054Y014568D01*
X029090Y014533D01*
X029122Y014495D01*
X029152Y014455D01*
X029179Y014412D01*
X029202Y014368D01*
X029221Y014322D01*
X029237Y014274D01*
X029249Y014225D01*
X029257Y014176D01*
X029261Y014126D01*
X029261Y014076D01*
X029257Y014026D01*
X029249Y013977D01*
X029237Y013928D01*
X029221Y013880D01*
X029202Y013834D01*
X029179Y013790D01*
X029152Y013747D01*
X029122Y013707D01*
X029090Y013669D01*
X029054Y013634D01*
X029015Y013602D01*
X028974Y013573D01*
X028931Y013547D01*
X028886Y013525D01*
X028840Y013507D01*
X028792Y013492D01*
X028743Y013481D01*
X028694Y013474D01*
X028644Y013471D01*
X028593Y013472D01*
X028544Y013477D01*
X028494Y013486D01*
X028446Y013499D01*
X028399Y013515D01*
X028353Y013536D01*
X028309Y013560D01*
X028267Y013587D01*
X028227Y013617D01*
X028190Y013651D01*
X028156Y013688D01*
X028124Y013727D01*
X028096Y013768D01*
X028071Y013812D01*
X028050Y013857D01*
X028033Y013904D01*
X028019Y013952D01*
X028009Y014001D01*
X028003Y014051D01*
X028001Y014101D01*
X029631Y015001D02*
X029631Y002101D01*
X028631Y001101D01*
X028631Y000101D01*
X002631Y000101D01*
X002631Y021101D01*
X028031Y021101D01*
X028631Y020501D01*
X028631Y016001D01*
X029631Y015001D01*
X028001Y003101D02*
X028003Y003151D01*
X028009Y003201D01*
X028019Y003250D01*
X028033Y003298D01*
X028050Y003345D01*
X028071Y003390D01*
X028096Y003434D01*
X028124Y003475D01*
X028156Y003514D01*
X028190Y003551D01*
X028227Y003585D01*
X028267Y003615D01*
X028309Y003642D01*
X028353Y003666D01*
X028399Y003687D01*
X028446Y003703D01*
X028494Y003716D01*
X028544Y003725D01*
X028593Y003730D01*
X028644Y003731D01*
X028694Y003728D01*
X028743Y003721D01*
X028792Y003710D01*
X028840Y003695D01*
X028886Y003677D01*
X028931Y003655D01*
X028974Y003629D01*
X029015Y003600D01*
X029054Y003568D01*
X029090Y003533D01*
X029122Y003495D01*
X029152Y003455D01*
X029179Y003412D01*
X029202Y003368D01*
X029221Y003322D01*
X029237Y003274D01*
X029249Y003225D01*
X029257Y003176D01*
X029261Y003126D01*
X029261Y003076D01*
X029257Y003026D01*
X029249Y002977D01*
X029237Y002928D01*
X029221Y002880D01*
X029202Y002834D01*
X029179Y002790D01*
X029152Y002747D01*
X029122Y002707D01*
X029090Y002669D01*
X029054Y002634D01*
X029015Y002602D01*
X028974Y002573D01*
X028931Y002547D01*
X028886Y002525D01*
X028840Y002507D01*
X028792Y002492D01*
X028743Y002481D01*
X028694Y002474D01*
X028644Y002471D01*
X028593Y002472D01*
X028544Y002477D01*
X028494Y002486D01*
X028446Y002499D01*
X028399Y002515D01*
X028353Y002536D01*
X028309Y002560D01*
X028267Y002587D01*
X028227Y002617D01*
X028190Y002651D01*
X028156Y002688D01*
X028124Y002727D01*
X028096Y002768D01*
X028071Y002812D01*
X028050Y002857D01*
X028033Y002904D01*
X028019Y002952D01*
X028009Y003001D01*
X028003Y003051D01*
X028001Y003101D01*
X008001Y020101D02*
X008003Y020151D01*
X008009Y020201D01*
X008019Y020250D01*
X008033Y020298D01*
X008050Y020345D01*
X008071Y020390D01*
X008096Y020434D01*
X008124Y020475D01*
X008156Y020514D01*
X008190Y020551D01*
X008227Y020585D01*
X008267Y020615D01*
X008309Y020642D01*
X008353Y020666D01*
X008399Y020687D01*
X008446Y020703D01*
X008494Y020716D01*
X008544Y020725D01*
X008593Y020730D01*
X008644Y020731D01*
X008694Y020728D01*
X008743Y020721D01*
X008792Y020710D01*
X008840Y020695D01*
X008886Y020677D01*
X008931Y020655D01*
X008974Y020629D01*
X009015Y020600D01*
X009054Y020568D01*
X009090Y020533D01*
X009122Y020495D01*
X009152Y020455D01*
X009179Y020412D01*
X009202Y020368D01*
X009221Y020322D01*
X009237Y020274D01*
X009249Y020225D01*
X009257Y020176D01*
X009261Y020126D01*
X009261Y020076D01*
X009257Y020026D01*
X009249Y019977D01*
X009237Y019928D01*
X009221Y019880D01*
X009202Y019834D01*
X009179Y019790D01*
X009152Y019747D01*
X009122Y019707D01*
X009090Y019669D01*
X009054Y019634D01*
X009015Y019602D01*
X008974Y019573D01*
X008931Y019547D01*
X008886Y019525D01*
X008840Y019507D01*
X008792Y019492D01*
X008743Y019481D01*
X008694Y019474D01*
X008644Y019471D01*
X008593Y019472D01*
X008544Y019477D01*
X008494Y019486D01*
X008446Y019499D01*
X008399Y019515D01*
X008353Y019536D01*
X008309Y019560D01*
X008267Y019587D01*
X008227Y019617D01*
X008190Y019651D01*
X008156Y019688D01*
X008124Y019727D01*
X008096Y019768D01*
X008071Y019812D01*
X008050Y019857D01*
X008033Y019904D01*
X008019Y019952D01*
X008009Y020001D01*
X008003Y020051D01*
X008001Y020101D01*
D12*
X007281Y020101D02*
X007283Y020174D01*
X007289Y020247D01*
X007299Y020319D01*
X007313Y020391D01*
X007330Y020462D01*
X007352Y020532D01*
X007377Y020601D01*
X007406Y020668D01*
X007438Y020733D01*
X007474Y020797D01*
X007514Y020859D01*
X007556Y020918D01*
X007602Y020975D01*
X007651Y021029D01*
X007703Y021081D01*
X007757Y021130D01*
X007814Y021176D01*
X007873Y021218D01*
X007935Y021258D01*
X007999Y021294D01*
X008064Y021326D01*
X008131Y021355D01*
X008200Y021380D01*
X008270Y021402D01*
X008341Y021419D01*
X008413Y021433D01*
X008485Y021443D01*
X008558Y021449D01*
X008631Y021451D01*
X008704Y021449D01*
X008777Y021443D01*
X008849Y021433D01*
X008921Y021419D01*
X008992Y021402D01*
X009062Y021380D01*
X009131Y021355D01*
X009198Y021326D01*
X009263Y021294D01*
X009327Y021258D01*
X009389Y021218D01*
X009448Y021176D01*
X009505Y021130D01*
X009559Y021081D01*
X009611Y021029D01*
X009660Y020975D01*
X009706Y020918D01*
X009748Y020859D01*
X009788Y020797D01*
X009824Y020733D01*
X009856Y020668D01*
X009885Y020601D01*
X009910Y020532D01*
X009932Y020462D01*
X009949Y020391D01*
X009963Y020319D01*
X009973Y020247D01*
X009979Y020174D01*
X009981Y020101D01*
X009979Y020028D01*
X009973Y019955D01*
X009963Y019883D01*
X009949Y019811D01*
X009932Y019740D01*
X009910Y019670D01*
X009885Y019601D01*
X009856Y019534D01*
X009824Y019469D01*
X009788Y019405D01*
X009748Y019343D01*
X009706Y019284D01*
X009660Y019227D01*
X009611Y019173D01*
X009559Y019121D01*
X009505Y019072D01*
X009448Y019026D01*
X009389Y018984D01*
X009327Y018944D01*
X009263Y018908D01*
X009198Y018876D01*
X009131Y018847D01*
X009062Y018822D01*
X008992Y018800D01*
X008921Y018783D01*
X008849Y018769D01*
X008777Y018759D01*
X008704Y018753D01*
X008631Y018751D01*
X008558Y018753D01*
X008485Y018759D01*
X008413Y018769D01*
X008341Y018783D01*
X008270Y018800D01*
X008200Y018822D01*
X008131Y018847D01*
X008064Y018876D01*
X007999Y018908D01*
X007935Y018944D01*
X007873Y018984D01*
X007814Y019026D01*
X007757Y019072D01*
X007703Y019121D01*
X007651Y019173D01*
X007602Y019227D01*
X007556Y019284D01*
X007514Y019343D01*
X007474Y019405D01*
X007438Y019469D01*
X007406Y019534D01*
X007377Y019601D01*
X007352Y019670D01*
X007330Y019740D01*
X007313Y019811D01*
X007299Y019883D01*
X007289Y019955D01*
X007283Y020028D01*
X007281Y020101D01*
X007781Y018151D02*
X007931Y018151D01*
X007981Y018101D01*
X009881Y018101D01*
X009931Y018151D01*
X010081Y018151D01*
X010098Y018149D01*
X010115Y018145D01*
X010131Y018138D01*
X010145Y018128D01*
X010158Y018115D01*
X010168Y018101D01*
X010175Y018085D01*
X010179Y018068D01*
X010181Y018051D01*
X010181Y017351D01*
X010179Y017334D01*
X010175Y017317D01*
X010168Y017301D01*
X010158Y017287D01*
X010145Y017274D01*
X010131Y017264D01*
X010115Y017257D01*
X010098Y017253D01*
X010081Y017251D01*
X009931Y017251D01*
X009881Y017301D01*
X007981Y017301D01*
X007931Y017251D01*
X007781Y017251D01*
X007764Y017253D01*
X007747Y017257D01*
X007731Y017264D01*
X007717Y017274D01*
X007704Y017287D01*
X007694Y017301D01*
X007687Y017317D01*
X007683Y017334D01*
X007681Y017351D01*
X007681Y018051D01*
X007683Y018068D01*
X007687Y018085D01*
X007694Y018101D01*
X007704Y018115D01*
X007717Y018128D01*
X007731Y018138D01*
X007747Y018145D01*
X007764Y018149D01*
X007781Y018151D01*
X007988Y016371D02*
X007561Y016371D01*
X007561Y015731D01*
X007561Y016051D02*
X007774Y016051D01*
X008205Y015838D02*
X008312Y015944D01*
X008632Y015944D01*
X008632Y016051D02*
X008632Y015731D01*
X008312Y015731D01*
X008205Y015838D01*
X008312Y016158D02*
X008525Y016158D01*
X008632Y016051D01*
X008850Y016158D02*
X008850Y015731D01*
X009277Y015731D02*
X009277Y016051D01*
X009170Y016158D01*
X008850Y016158D01*
X010139Y016371D02*
X010139Y015731D01*
X010139Y015944D02*
X010459Y015944D01*
X010566Y016051D01*
X010566Y016265D01*
X010459Y016371D01*
X010139Y016371D01*
X010352Y015944D02*
X010566Y015731D01*
X010783Y015838D02*
X010783Y016051D01*
X010890Y016158D01*
X011103Y016158D01*
X011210Y016051D01*
X011210Y015944D01*
X010783Y015944D01*
X010783Y015838D02*
X010890Y015731D01*
X011103Y015731D01*
X011428Y015838D02*
X011534Y015731D01*
X011855Y015731D01*
X011855Y015624D02*
X011855Y016158D01*
X011534Y016158D01*
X011428Y016051D01*
X011428Y015838D01*
X011641Y015517D02*
X011748Y015517D01*
X011855Y015624D01*
X012072Y015838D02*
X012179Y015731D01*
X012499Y015731D01*
X012499Y016158D01*
X012717Y016371D02*
X012824Y016371D01*
X012824Y015731D01*
X012930Y015731D02*
X012717Y015731D01*
X013146Y015838D02*
X013253Y015944D01*
X013573Y015944D01*
X013573Y016051D02*
X013573Y015731D01*
X013253Y015731D01*
X013146Y015838D01*
X013467Y016158D02*
X013573Y016051D01*
X013467Y016158D02*
X013253Y016158D01*
X013791Y016158D02*
X014004Y016158D01*
X013898Y016265D02*
X013898Y015838D01*
X014004Y015731D01*
X014221Y015838D02*
X014327Y015731D01*
X014541Y015731D01*
X014648Y015838D01*
X014648Y016051D01*
X014541Y016158D01*
X014327Y016158D01*
X014221Y016051D01*
X014221Y015838D01*
X014865Y015944D02*
X015079Y016158D01*
X015185Y016158D01*
X014865Y016158D02*
X014865Y015731D01*
X014719Y015371D02*
X014719Y014731D01*
X014932Y014731D02*
X014505Y014731D01*
X014074Y014731D02*
X014288Y015158D01*
X014505Y015158D02*
X014719Y015371D01*
X015150Y014838D02*
X015256Y014838D01*
X015256Y014731D01*
X015150Y014731D01*
X015150Y014838D01*
X015472Y014838D02*
X015472Y015265D01*
X015579Y015371D01*
X015792Y015371D01*
X015899Y015265D01*
X015472Y014838D01*
X015579Y014731D01*
X015792Y014731D01*
X015899Y014838D01*
X015899Y015265D01*
X017306Y014701D02*
X018456Y014751D01*
X018556Y014851D01*
X018556Y018551D01*
X018456Y018651D01*
X017306Y018701D01*
X017281Y019601D02*
X016781Y019601D01*
X016531Y019851D01*
X016281Y019601D01*
X015781Y019601D01*
X015531Y019851D01*
X015281Y019601D01*
X014781Y019601D01*
X014531Y019851D01*
X014281Y019601D01*
X013781Y019601D01*
X013531Y019851D01*
X013281Y019601D01*
X012781Y019601D01*
X012531Y019851D01*
X012281Y019601D01*
X011781Y019601D01*
X011531Y019851D01*
X011531Y020351D01*
X011781Y020601D01*
X012281Y020601D01*
X012531Y020351D01*
X012781Y020601D01*
X013281Y020601D01*
X013531Y020351D01*
X013531Y019851D01*
X013531Y020351D02*
X013781Y020601D01*
X014281Y020601D01*
X014531Y020351D01*
X014781Y020601D01*
X015281Y020601D01*
X015531Y020351D01*
X015781Y020601D01*
X016281Y020601D01*
X016531Y020351D01*
X016531Y019851D01*
X016531Y020351D02*
X016781Y020601D01*
X017281Y020601D01*
X017531Y020351D01*
X017781Y020601D01*
X018281Y020601D01*
X018531Y020351D01*
X018781Y020601D01*
X019281Y020601D01*
X019531Y020351D01*
X019531Y019851D01*
X019281Y019601D01*
X018781Y019601D01*
X018531Y019851D01*
X018281Y019601D01*
X017781Y019601D01*
X017531Y019851D01*
X017281Y019601D01*
X017531Y019851D02*
X017531Y020351D01*
X018531Y020351D02*
X018531Y019851D01*
X020131Y019851D02*
X020381Y019601D01*
X020881Y019601D01*
X021131Y019851D01*
X021381Y019601D01*
X021881Y019601D01*
X022131Y019851D01*
X022131Y020351D01*
X021881Y020601D01*
X021381Y020601D01*
X021131Y020351D01*
X021131Y019851D01*
X021131Y020351D02*
X020881Y020601D01*
X020381Y020601D01*
X020131Y020351D01*
X020131Y019851D01*
X022131Y019851D02*
X022381Y019601D01*
X022881Y019601D01*
X023131Y019851D01*
X023381Y019601D01*
X023881Y019601D01*
X024131Y019851D01*
X024381Y019601D01*
X024881Y019601D01*
X025131Y019851D01*
X025131Y020351D01*
X024881Y020601D01*
X024381Y020601D01*
X024131Y020351D01*
X024131Y019851D01*
X024131Y020351D02*
X023881Y020601D01*
X023381Y020601D01*
X023131Y020351D01*
X023131Y019851D01*
X023131Y020351D02*
X022881Y020601D01*
X022381Y020601D01*
X022131Y020351D01*
X022481Y018201D02*
X023981Y018201D01*
X024231Y017951D01*
X024231Y017451D01*
X023981Y017201D01*
X022481Y017201D01*
X022231Y017451D01*
X022231Y017951D01*
X022481Y018201D01*
X022481Y017201D02*
X022231Y016951D01*
X022231Y016451D01*
X022481Y016201D01*
X023981Y016201D01*
X024231Y016451D01*
X024231Y016951D01*
X023981Y017201D01*
X023981Y016201D02*
X024231Y015951D01*
X024231Y015451D01*
X023981Y015201D01*
X022481Y015201D01*
X022231Y015451D01*
X022231Y015951D01*
X022481Y016201D01*
X021781Y015851D02*
X021781Y015701D01*
X021731Y015651D01*
X021731Y013751D01*
X021781Y013701D01*
X021781Y013551D01*
X021779Y013534D01*
X021775Y013517D01*
X021768Y013501D01*
X021758Y013487D01*
X021745Y013474D01*
X021731Y013464D01*
X021715Y013457D01*
X021698Y013453D01*
X021681Y013451D01*
X020981Y013451D01*
X020964Y013453D01*
X020947Y013457D01*
X020931Y013464D01*
X020917Y013474D01*
X020904Y013487D01*
X020894Y013501D01*
X020887Y013517D01*
X020883Y013534D01*
X020881Y013551D01*
X020881Y013701D01*
X020931Y013751D01*
X020931Y015651D01*
X020881Y015701D01*
X020881Y015851D01*
X020883Y015868D01*
X020887Y015885D01*
X020894Y015901D01*
X020904Y015915D01*
X020917Y015928D01*
X020931Y015938D01*
X020947Y015945D01*
X020964Y015949D01*
X020981Y015951D01*
X021681Y015951D01*
X021698Y015949D01*
X021715Y015945D01*
X021731Y015938D01*
X021745Y015928D01*
X021758Y015915D01*
X021768Y015901D01*
X021775Y015885D01*
X021779Y015868D01*
X021781Y015851D01*
X018781Y017201D02*
X018783Y017267D01*
X018789Y017332D01*
X018799Y017397D01*
X018812Y017462D01*
X018830Y017525D01*
X018851Y017588D01*
X018876Y017648D01*
X018905Y017708D01*
X018937Y017765D01*
X018972Y017821D01*
X019011Y017874D01*
X019053Y017925D01*
X019097Y017973D01*
X019145Y018018D01*
X019195Y018061D01*
X019248Y018100D01*
X019303Y018137D01*
X019360Y018170D01*
X019419Y018199D01*
X019479Y018225D01*
X019541Y018247D01*
X019604Y018266D01*
X019668Y018280D01*
X019733Y018291D01*
X019799Y018298D01*
X019865Y018301D01*
X019930Y018300D01*
X019996Y018295D01*
X020061Y018286D01*
X020126Y018273D01*
X020189Y018257D01*
X020252Y018237D01*
X020313Y018212D01*
X020373Y018185D01*
X020431Y018154D01*
X020487Y018119D01*
X020541Y018081D01*
X020592Y018040D01*
X020641Y017996D01*
X020687Y017949D01*
X020731Y017900D01*
X020771Y017848D01*
X020808Y017793D01*
X020842Y017737D01*
X020872Y017678D01*
X020899Y017618D01*
X020922Y017557D01*
X020941Y017494D01*
X020957Y017430D01*
X020969Y017365D01*
X020977Y017300D01*
X020981Y017234D01*
X020981Y017168D01*
X020977Y017102D01*
X020969Y017037D01*
X020957Y016972D01*
X020941Y016908D01*
X020922Y016845D01*
X020899Y016784D01*
X020872Y016724D01*
X020842Y016665D01*
X020808Y016609D01*
X020771Y016554D01*
X020731Y016502D01*
X020687Y016453D01*
X020641Y016406D01*
X020592Y016362D01*
X020541Y016321D01*
X020487Y016283D01*
X020431Y016248D01*
X020373Y016217D01*
X020313Y016190D01*
X020252Y016165D01*
X020189Y016145D01*
X020126Y016129D01*
X020061Y016116D01*
X019996Y016107D01*
X019930Y016102D01*
X019865Y016101D01*
X019799Y016104D01*
X019733Y016111D01*
X019668Y016122D01*
X019604Y016136D01*
X019541Y016155D01*
X019479Y016177D01*
X019419Y016203D01*
X019360Y016232D01*
X019303Y016265D01*
X019248Y016302D01*
X019195Y016341D01*
X019145Y016384D01*
X019097Y016429D01*
X019053Y016477D01*
X019011Y016528D01*
X018972Y016581D01*
X018937Y016637D01*
X018905Y016694D01*
X018876Y016754D01*
X018851Y016814D01*
X018830Y016877D01*
X018812Y016940D01*
X018799Y017005D01*
X018789Y017070D01*
X018783Y017135D01*
X018781Y017201D01*
X019381Y016701D02*
X019381Y016551D01*
X019231Y016551D01*
X019381Y016551D02*
X019531Y016551D01*
X019381Y016551D02*
X019381Y016401D01*
X018216Y014931D02*
X018218Y014951D01*
X018224Y014969D01*
X018233Y014987D01*
X018245Y015002D01*
X018260Y015014D01*
X018278Y015023D01*
X018296Y015029D01*
X018316Y015031D01*
X018336Y015029D01*
X018354Y015023D01*
X018372Y015014D01*
X018387Y015002D01*
X018399Y014987D01*
X018408Y014969D01*
X018414Y014951D01*
X018416Y014931D01*
X018414Y014911D01*
X018408Y014893D01*
X018399Y014875D01*
X018387Y014860D01*
X018372Y014848D01*
X018354Y014839D01*
X018336Y014833D01*
X018316Y014831D01*
X018296Y014833D01*
X018278Y014839D01*
X018260Y014848D01*
X018245Y014860D01*
X018233Y014875D01*
X018224Y014893D01*
X018218Y014911D01*
X018216Y014931D01*
X019131Y013851D02*
X019381Y014101D01*
X019881Y014101D01*
X020131Y013851D01*
X020131Y013351D01*
X019881Y013101D01*
X020131Y012851D01*
X020131Y012351D01*
X019881Y012101D01*
X020131Y011851D01*
X020131Y011351D01*
X019881Y011101D01*
X020131Y010851D01*
X020131Y010351D01*
X019881Y010101D01*
X020131Y009851D01*
X020131Y009351D01*
X019881Y009101D01*
X020131Y008851D01*
X020131Y008351D01*
X019881Y008101D01*
X020131Y007851D01*
X020131Y007351D01*
X019881Y007101D01*
X020131Y006851D01*
X020131Y006351D01*
X019881Y006101D01*
X019381Y006101D01*
X019131Y006351D01*
X019131Y006851D01*
X019381Y007101D01*
X019131Y007351D01*
X019131Y007851D01*
X019381Y008101D01*
X019881Y008101D01*
X019381Y008101D02*
X019131Y008351D01*
X019131Y008851D01*
X019381Y009101D01*
X019131Y009351D01*
X019131Y009851D01*
X019381Y010101D01*
X019131Y010351D01*
X019131Y010851D01*
X019381Y011101D01*
X019881Y011101D01*
X019381Y011101D02*
X019131Y011351D01*
X019131Y011851D01*
X019381Y012101D01*
X019131Y012351D01*
X019131Y012851D01*
X019381Y013101D01*
X019131Y013351D01*
X019131Y013851D01*
X019381Y013101D02*
X019881Y013101D01*
X019881Y012101D02*
X019381Y012101D01*
X019381Y010101D02*
X019881Y010101D01*
X019881Y009101D02*
X019381Y009101D01*
X019381Y007101D02*
X019881Y007101D01*
X019181Y005101D02*
X020681Y005101D01*
X020931Y004851D01*
X020931Y004351D01*
X020681Y004101D01*
X019181Y004101D01*
X018931Y004351D01*
X018931Y004851D01*
X019181Y005101D01*
X019181Y004101D02*
X018931Y003851D01*
X018931Y003351D01*
X019181Y003101D01*
X020681Y003101D01*
X020931Y003351D01*
X020931Y003851D01*
X020681Y004101D01*
X023181Y004101D02*
X023181Y003101D01*
X024181Y003101D01*
X024181Y004101D01*
X024181Y005101D01*
X023181Y005101D01*
X023181Y004101D01*
X024181Y004101D01*
X024381Y006301D02*
X022881Y006301D01*
X022631Y006551D01*
X022631Y007051D01*
X022881Y007301D01*
X024381Y007301D01*
X024631Y007051D01*
X024631Y006551D01*
X024381Y006301D01*
X024381Y007301D02*
X024631Y007551D01*
X024631Y008051D01*
X024381Y008301D01*
X022881Y008301D01*
X022631Y008051D01*
X022631Y007551D01*
X022881Y007301D01*
X022881Y008301D02*
X022631Y008551D01*
X022631Y009051D01*
X022881Y009301D01*
X024381Y009301D01*
X024631Y009051D01*
X024631Y008551D01*
X024381Y008301D01*
X024381Y009301D02*
X024631Y009551D01*
X024631Y010051D01*
X024381Y010301D01*
X022881Y010301D01*
X022631Y010051D01*
X022631Y009551D01*
X022881Y009301D01*
X022881Y010301D02*
X022631Y010551D01*
X022631Y011051D01*
X022881Y011301D01*
X024381Y011301D01*
X024631Y011051D01*
X024631Y010551D01*
X024381Y010301D01*
X027981Y010301D02*
X027981Y009301D01*
X027981Y008301D01*
X027981Y007301D01*
X027981Y006301D01*
X027981Y005301D01*
X028981Y005301D01*
X028981Y006301D01*
X028981Y007301D01*
X028981Y008301D01*
X028981Y009301D01*
X028981Y010301D01*
X028981Y011301D01*
X028981Y012301D01*
X027981Y012301D01*
X027981Y011301D01*
X027981Y010301D01*
X028981Y010301D01*
X028981Y011301D02*
X027981Y011301D01*
X027981Y009301D02*
X028981Y009301D01*
X028981Y008301D02*
X027981Y008301D01*
X027981Y007301D02*
X028981Y007301D01*
X028981Y006301D02*
X027981Y006301D01*
X027281Y003101D02*
X027283Y003174D01*
X027289Y003247D01*
X027299Y003319D01*
X027313Y003391D01*
X027330Y003462D01*
X027352Y003532D01*
X027377Y003601D01*
X027406Y003668D01*
X027438Y003733D01*
X027474Y003797D01*
X027514Y003859D01*
X027556Y003918D01*
X027602Y003975D01*
X027651Y004029D01*
X027703Y004081D01*
X027757Y004130D01*
X027814Y004176D01*
X027873Y004218D01*
X027935Y004258D01*
X027999Y004294D01*
X028064Y004326D01*
X028131Y004355D01*
X028200Y004380D01*
X028270Y004402D01*
X028341Y004419D01*
X028413Y004433D01*
X028485Y004443D01*
X028558Y004449D01*
X028631Y004451D01*
X028704Y004449D01*
X028777Y004443D01*
X028849Y004433D01*
X028921Y004419D01*
X028992Y004402D01*
X029062Y004380D01*
X029131Y004355D01*
X029198Y004326D01*
X029263Y004294D01*
X029327Y004258D01*
X029389Y004218D01*
X029448Y004176D01*
X029505Y004130D01*
X029559Y004081D01*
X029611Y004029D01*
X029660Y003975D01*
X029706Y003918D01*
X029748Y003859D01*
X029788Y003797D01*
X029824Y003733D01*
X029856Y003668D01*
X029885Y003601D01*
X029910Y003532D01*
X029932Y003462D01*
X029949Y003391D01*
X029963Y003319D01*
X029973Y003247D01*
X029979Y003174D01*
X029981Y003101D01*
X029979Y003028D01*
X029973Y002955D01*
X029963Y002883D01*
X029949Y002811D01*
X029932Y002740D01*
X029910Y002670D01*
X029885Y002601D01*
X029856Y002534D01*
X029824Y002469D01*
X029788Y002405D01*
X029748Y002343D01*
X029706Y002284D01*
X029660Y002227D01*
X029611Y002173D01*
X029559Y002121D01*
X029505Y002072D01*
X029448Y002026D01*
X029389Y001984D01*
X029327Y001944D01*
X029263Y001908D01*
X029198Y001876D01*
X029131Y001847D01*
X029062Y001822D01*
X028992Y001800D01*
X028921Y001783D01*
X028849Y001769D01*
X028777Y001759D01*
X028704Y001753D01*
X028631Y001751D01*
X028558Y001753D01*
X028485Y001759D01*
X028413Y001769D01*
X028341Y001783D01*
X028270Y001800D01*
X028200Y001822D01*
X028131Y001847D01*
X028064Y001876D01*
X027999Y001908D01*
X027935Y001944D01*
X027873Y001984D01*
X027814Y002026D01*
X027757Y002072D01*
X027703Y002121D01*
X027651Y002173D01*
X027602Y002227D01*
X027556Y002284D01*
X027514Y002343D01*
X027474Y002405D01*
X027438Y002469D01*
X027406Y002534D01*
X027377Y002601D01*
X027352Y002670D01*
X027330Y002740D01*
X027313Y002811D01*
X027299Y002883D01*
X027289Y002955D01*
X027283Y003028D01*
X027281Y003101D01*
X027381Y001601D02*
X027131Y001351D01*
X027131Y000851D01*
X027381Y000601D01*
X027881Y000601D01*
X028131Y000851D01*
X028131Y001351D01*
X027881Y001601D01*
X027381Y001601D01*
X027131Y001351D02*
X026881Y001601D01*
X026381Y001601D01*
X026131Y001351D01*
X026131Y000851D01*
X026381Y000601D01*
X026881Y000601D01*
X027131Y000851D01*
X026131Y000851D02*
X025881Y000601D01*
X025381Y000601D01*
X025131Y000851D01*
X024881Y000601D01*
X024381Y000601D01*
X024131Y000851D01*
X023881Y000601D01*
X023381Y000601D01*
X023131Y000851D01*
X022881Y000601D01*
X022381Y000601D01*
X022131Y000851D01*
X022131Y001351D01*
X022381Y001601D01*
X022881Y001601D01*
X023131Y001351D01*
X023381Y001601D01*
X023881Y001601D01*
X024131Y001351D01*
X024131Y000851D01*
X024131Y001351D02*
X024381Y001601D01*
X024881Y001601D01*
X025131Y001351D01*
X025381Y001601D01*
X025881Y001601D01*
X026131Y001351D01*
X025131Y001351D02*
X025131Y000851D01*
X023131Y000851D02*
X023131Y001351D01*
X021131Y001351D02*
X021131Y000851D01*
X020881Y000601D01*
X020381Y000601D01*
X020131Y000851D01*
X019881Y000601D01*
X019381Y000601D01*
X019131Y000851D01*
X018881Y000601D01*
X018381Y000601D01*
X018131Y000851D01*
X017881Y000601D01*
X017381Y000601D01*
X017131Y000851D01*
X016881Y000601D01*
X016381Y000601D01*
X016131Y000851D01*
X015881Y000601D01*
X015381Y000601D01*
X015131Y000851D01*
X015131Y001351D01*
X015381Y001601D01*
X015881Y001601D01*
X016131Y001351D01*
X016381Y001601D01*
X016881Y001601D01*
X017131Y001351D01*
X017131Y000851D01*
X017131Y001351D02*
X017381Y001601D01*
X017881Y001601D01*
X018131Y001351D01*
X018381Y001601D01*
X018881Y001601D01*
X019131Y001351D01*
X019381Y001601D01*
X019881Y001601D01*
X020131Y001351D01*
X020381Y001601D01*
X020881Y001601D01*
X021131Y001351D01*
X020131Y001351D02*
X020131Y000851D01*
X019131Y000851D02*
X019131Y001351D01*
X018131Y001351D02*
X018131Y000851D01*
X016131Y000851D02*
X016131Y001351D01*
X013831Y001351D02*
X013831Y001851D01*
X013581Y002101D01*
X012081Y002101D01*
X011831Y002351D01*
X011831Y002851D01*
X012081Y003101D01*
X013581Y003101D01*
X013831Y003351D01*
X013831Y003851D01*
X013581Y004101D01*
X013831Y004351D01*
X013831Y004851D01*
X013581Y005101D01*
X012081Y005101D01*
X011831Y004851D01*
X011831Y004351D01*
X012081Y004101D01*
X013581Y004101D01*
X013581Y003101D02*
X013831Y002851D01*
X013831Y002351D01*
X013581Y002101D01*
X013831Y001351D02*
X013581Y001101D01*
X012081Y001101D01*
X011831Y001351D01*
X011831Y001851D01*
X012081Y002101D01*
X012081Y003101D02*
X011831Y003351D01*
X011831Y003851D01*
X012081Y004101D01*
X010181Y005351D02*
X010181Y006051D01*
X010179Y006068D01*
X010175Y006085D01*
X010168Y006101D01*
X010158Y006115D01*
X010145Y006128D01*
X010131Y006138D01*
X010115Y006145D01*
X010098Y006149D01*
X010081Y006151D01*
X009931Y006151D01*
X009881Y006101D01*
X007981Y006101D01*
X007931Y006151D01*
X007781Y006151D01*
X007764Y006149D01*
X007747Y006145D01*
X007731Y006138D01*
X007717Y006128D01*
X007704Y006115D01*
X007694Y006101D01*
X007687Y006085D01*
X007683Y006068D01*
X007681Y006051D01*
X007681Y005351D01*
X007683Y005334D01*
X007687Y005317D01*
X007694Y005301D01*
X007704Y005287D01*
X007717Y005274D01*
X007731Y005264D01*
X007747Y005257D01*
X007764Y005253D01*
X007781Y005251D01*
X007931Y005251D01*
X007981Y005301D01*
X009881Y005301D01*
X009931Y005251D01*
X010081Y005251D01*
X010098Y005253D01*
X010115Y005257D01*
X010131Y005264D01*
X010145Y005274D01*
X010158Y005287D01*
X010168Y005301D01*
X010175Y005317D01*
X010179Y005334D01*
X010181Y005351D01*
X013131Y006351D02*
X013131Y006851D01*
X013381Y007101D01*
X013131Y007351D01*
X013131Y007851D01*
X013381Y008101D01*
X013131Y008351D01*
X013131Y008851D01*
X013381Y009101D01*
X013131Y009351D01*
X013131Y009851D01*
X013381Y010101D01*
X013131Y010351D01*
X013131Y010851D01*
X013381Y011101D01*
X013131Y011351D01*
X013131Y011851D01*
X013381Y012101D01*
X013131Y012351D01*
X013131Y012851D01*
X013381Y013101D01*
X013131Y013351D01*
X013131Y013851D01*
X013381Y014101D01*
X013881Y014101D01*
X014131Y013851D01*
X014131Y013351D01*
X013881Y013101D01*
X014131Y012851D01*
X014131Y012351D01*
X013881Y012101D01*
X013381Y012101D01*
X013881Y012101D02*
X014131Y011851D01*
X014131Y011351D01*
X013881Y011101D01*
X014131Y010851D01*
X014131Y010351D01*
X013881Y010101D01*
X014131Y009851D01*
X014131Y009351D01*
X013881Y009101D01*
X013381Y009101D01*
X013881Y009101D02*
X014131Y008851D01*
X014131Y008351D01*
X013881Y008101D01*
X014131Y007851D01*
X014131Y007351D01*
X013881Y007101D01*
X014131Y006851D01*
X014131Y006351D01*
X013881Y006101D01*
X013381Y006101D01*
X013131Y006351D01*
X013381Y007101D02*
X013881Y007101D01*
X013881Y008101D02*
X013381Y008101D01*
X013381Y010101D02*
X013881Y010101D01*
X013881Y011101D02*
X013381Y011101D01*
X013381Y013101D02*
X013881Y013101D01*
X014074Y014731D02*
X013861Y015158D01*
X012072Y015838D02*
X012072Y016158D01*
X010081Y014151D02*
X009931Y014151D01*
X009881Y014101D01*
X007981Y014101D01*
X007931Y014151D01*
X007781Y014151D01*
X007764Y014149D01*
X007747Y014145D01*
X007731Y014138D01*
X007717Y014128D01*
X007704Y014115D01*
X007694Y014101D01*
X007687Y014085D01*
X007683Y014068D01*
X007681Y014051D01*
X007681Y013351D01*
X007683Y013334D01*
X007687Y013317D01*
X007694Y013301D01*
X007704Y013287D01*
X007717Y013274D01*
X007731Y013264D01*
X007747Y013257D01*
X007764Y013253D01*
X007781Y013251D01*
X007931Y013251D01*
X007981Y013301D01*
X009881Y013301D01*
X009931Y013251D01*
X010081Y013251D01*
X010098Y013253D01*
X010115Y013257D01*
X010131Y013264D01*
X010145Y013274D01*
X010158Y013287D01*
X010168Y013301D01*
X010175Y013317D01*
X010179Y013334D01*
X010181Y013351D01*
X010181Y014051D01*
X010179Y014068D01*
X010175Y014085D01*
X010168Y014101D01*
X010158Y014115D01*
X010145Y014128D01*
X010131Y014138D01*
X010115Y014145D01*
X010098Y014149D01*
X010081Y014151D01*
X010081Y010151D02*
X009931Y010151D01*
X009881Y010101D01*
X007981Y010101D01*
X007931Y010151D01*
X007781Y010151D01*
X007764Y010149D01*
X007747Y010145D01*
X007731Y010138D01*
X007717Y010128D01*
X007704Y010115D01*
X007694Y010101D01*
X007687Y010085D01*
X007683Y010068D01*
X007681Y010051D01*
X007681Y009351D01*
X007683Y009334D01*
X007687Y009317D01*
X007694Y009301D01*
X007704Y009287D01*
X007717Y009274D01*
X007731Y009264D01*
X007747Y009257D01*
X007764Y009253D01*
X007781Y009251D01*
X007931Y009251D01*
X007981Y009301D01*
X009881Y009301D01*
X009931Y009251D01*
X010081Y009251D01*
X010098Y009253D01*
X010115Y009257D01*
X010131Y009264D01*
X010145Y009274D01*
X010158Y009287D01*
X010168Y009301D01*
X010175Y009317D01*
X010179Y009334D01*
X010181Y009351D01*
X010181Y010051D01*
X010179Y010068D01*
X010175Y010085D01*
X010168Y010101D01*
X010158Y010115D01*
X010145Y010128D01*
X010131Y010138D01*
X010115Y010145D01*
X010098Y010149D01*
X010081Y010151D01*
X015181Y005051D02*
X015331Y005051D01*
X015381Y005001D01*
X017281Y005001D01*
X017331Y005051D01*
X017481Y005051D01*
X017498Y005049D01*
X017515Y005045D01*
X017531Y005038D01*
X017545Y005028D01*
X017558Y005015D01*
X017568Y005001D01*
X017575Y004985D01*
X017579Y004968D01*
X017581Y004951D01*
X017581Y004251D01*
X017579Y004234D01*
X017575Y004217D01*
X017568Y004201D01*
X017558Y004187D01*
X017545Y004174D01*
X017531Y004164D01*
X017515Y004157D01*
X017498Y004153D01*
X017481Y004151D01*
X017331Y004151D01*
X017281Y004201D01*
X015381Y004201D01*
X015331Y004151D01*
X015181Y004151D01*
X015164Y004153D01*
X015147Y004157D01*
X015131Y004164D01*
X015117Y004174D01*
X015104Y004187D01*
X015094Y004201D01*
X015087Y004217D01*
X015083Y004234D01*
X015081Y004251D01*
X015081Y004951D01*
X015083Y004968D01*
X015087Y004985D01*
X015094Y005001D01*
X015104Y005015D01*
X015117Y005028D01*
X015131Y005038D01*
X015147Y005045D01*
X015164Y005049D01*
X015181Y005051D01*
X015181Y004051D02*
X015331Y004051D01*
X015381Y004001D01*
X017281Y004001D01*
X017331Y004051D01*
X017481Y004051D01*
X017498Y004049D01*
X017515Y004045D01*
X017531Y004038D01*
X017545Y004028D01*
X017558Y004015D01*
X017568Y004001D01*
X017575Y003985D01*
X017579Y003968D01*
X017581Y003951D01*
X017581Y003251D01*
X017579Y003234D01*
X017575Y003217D01*
X017568Y003201D01*
X017558Y003187D01*
X017545Y003174D01*
X017531Y003164D01*
X017515Y003157D01*
X017498Y003153D01*
X017481Y003151D01*
X017331Y003151D01*
X017281Y003201D01*
X015381Y003201D01*
X015331Y003151D01*
X015181Y003151D01*
X015164Y003153D01*
X015147Y003157D01*
X015131Y003164D01*
X015117Y003174D01*
X015104Y003187D01*
X015094Y003201D01*
X015087Y003217D01*
X015083Y003234D01*
X015081Y003251D01*
X015081Y003951D01*
X015083Y003968D01*
X015087Y003985D01*
X015094Y004001D01*
X015104Y004015D01*
X015117Y004028D01*
X015131Y004038D01*
X015147Y004045D01*
X015164Y004049D01*
X015181Y004051D01*
X027281Y014101D02*
X027283Y014174D01*
X027289Y014247D01*
X027299Y014319D01*
X027313Y014391D01*
X027330Y014462D01*
X027352Y014532D01*
X027377Y014601D01*
X027406Y014668D01*
X027438Y014733D01*
X027474Y014797D01*
X027514Y014859D01*
X027556Y014918D01*
X027602Y014975D01*
X027651Y015029D01*
X027703Y015081D01*
X027757Y015130D01*
X027814Y015176D01*
X027873Y015218D01*
X027935Y015258D01*
X027999Y015294D01*
X028064Y015326D01*
X028131Y015355D01*
X028200Y015380D01*
X028270Y015402D01*
X028341Y015419D01*
X028413Y015433D01*
X028485Y015443D01*
X028558Y015449D01*
X028631Y015451D01*
X028704Y015449D01*
X028777Y015443D01*
X028849Y015433D01*
X028921Y015419D01*
X028992Y015402D01*
X029062Y015380D01*
X029131Y015355D01*
X029198Y015326D01*
X029263Y015294D01*
X029327Y015258D01*
X029389Y015218D01*
X029448Y015176D01*
X029505Y015130D01*
X029559Y015081D01*
X029611Y015029D01*
X029660Y014975D01*
X029706Y014918D01*
X029748Y014859D01*
X029788Y014797D01*
X029824Y014733D01*
X029856Y014668D01*
X029885Y014601D01*
X029910Y014532D01*
X029932Y014462D01*
X029949Y014391D01*
X029963Y014319D01*
X029973Y014247D01*
X029979Y014174D01*
X029981Y014101D01*
X029979Y014028D01*
X029973Y013955D01*
X029963Y013883D01*
X029949Y013811D01*
X029932Y013740D01*
X029910Y013670D01*
X029885Y013601D01*
X029856Y013534D01*
X029824Y013469D01*
X029788Y013405D01*
X029748Y013343D01*
X029706Y013284D01*
X029660Y013227D01*
X029611Y013173D01*
X029559Y013121D01*
X029505Y013072D01*
X029448Y013026D01*
X029389Y012984D01*
X029327Y012944D01*
X029263Y012908D01*
X029198Y012876D01*
X029131Y012847D01*
X029062Y012822D01*
X028992Y012800D01*
X028921Y012783D01*
X028849Y012769D01*
X028777Y012759D01*
X028704Y012753D01*
X028631Y012751D01*
X028558Y012753D01*
X028485Y012759D01*
X028413Y012769D01*
X028341Y012783D01*
X028270Y012800D01*
X028200Y012822D01*
X028131Y012847D01*
X028064Y012876D01*
X027999Y012908D01*
X027935Y012944D01*
X027873Y012984D01*
X027814Y013026D01*
X027757Y013072D01*
X027703Y013121D01*
X027651Y013173D01*
X027602Y013227D01*
X027556Y013284D01*
X027514Y013343D01*
X027474Y013405D01*
X027438Y013469D01*
X027406Y013534D01*
X027377Y013601D01*
X027352Y013670D01*
X027330Y013740D01*
X027313Y013811D01*
X027299Y013883D01*
X027289Y013955D01*
X027283Y014028D01*
X027281Y014101D01*
X027381Y019601D02*
X027881Y019601D01*
X028131Y019851D01*
X028131Y020351D01*
X027881Y020601D01*
X027381Y020601D01*
X027131Y020351D01*
X027131Y019851D01*
X027381Y019601D01*
X027131Y019851D02*
X026881Y019601D01*
X026381Y019601D01*
X026131Y019851D01*
X025881Y019601D01*
X025381Y019601D01*
X025131Y019851D01*
X025131Y020351D02*
X025381Y020601D01*
X025881Y020601D01*
X026131Y020351D01*
X026381Y020601D01*
X026881Y020601D01*
X027131Y020351D01*
X026131Y020351D02*
X026131Y019851D01*
X015531Y019851D02*
X015531Y020351D01*
X014531Y020351D02*
X014531Y019851D01*
X012531Y019851D02*
X012531Y020351D01*
D13*
X024341Y017794D02*
X024341Y017647D01*
X024377Y017611D01*
X024451Y017611D01*
X024487Y017647D01*
X024487Y017721D01*
X024414Y017721D01*
X024487Y017794D02*
X024451Y017831D01*
X024377Y017831D01*
X024341Y017794D01*
X024562Y017831D02*
X024708Y017611D01*
X024708Y017831D01*
X024783Y017831D02*
X024783Y017611D01*
X024893Y017611D01*
X024929Y017647D01*
X024929Y017794D01*
X024893Y017831D01*
X024783Y017831D01*
X024562Y017831D02*
X024562Y017611D01*
X024598Y016831D02*
X024672Y016831D01*
X024708Y016794D01*
X024562Y016647D01*
X024598Y016611D01*
X024672Y016611D01*
X024708Y016647D01*
X024708Y016794D01*
X024783Y016831D02*
X024783Y016611D01*
X024783Y016684D02*
X024929Y016831D01*
X024819Y016721D02*
X024929Y016611D01*
X024562Y016647D02*
X024562Y016794D01*
X024598Y016831D01*
X024414Y016831D02*
X024414Y016611D01*
X024341Y016611D02*
X024487Y016611D01*
X024341Y016758D02*
X024414Y016831D01*
X024341Y015831D02*
X024341Y015684D01*
X024414Y015611D01*
X024487Y015684D01*
X024487Y015831D01*
X024562Y015794D02*
X024562Y015647D01*
X024598Y015611D01*
X024672Y015611D01*
X024708Y015647D01*
X024783Y015647D02*
X024783Y015794D01*
X024819Y015831D01*
X024893Y015831D01*
X024929Y015794D01*
X024929Y015647D02*
X024893Y015611D01*
X024819Y015611D01*
X024783Y015647D01*
X024708Y015794D02*
X024672Y015831D01*
X024598Y015831D01*
X024562Y015794D01*
X027341Y015784D02*
X027414Y015711D01*
X027487Y015784D01*
X027487Y015931D01*
X027562Y015858D02*
X027635Y015931D01*
X027708Y015858D01*
X027708Y015711D01*
X027783Y015747D02*
X027819Y015711D01*
X027893Y015711D01*
X027929Y015747D01*
X027929Y015931D01*
X028004Y015931D02*
X028150Y015711D01*
X028004Y015711D02*
X028150Y015931D01*
X028040Y016211D02*
X028077Y016247D01*
X028077Y016394D01*
X028040Y016431D01*
X027967Y016431D01*
X027930Y016394D01*
X027930Y016247D01*
X027967Y016211D01*
X028040Y016211D01*
X027856Y016211D02*
X027783Y016211D01*
X027819Y016211D02*
X027819Y016431D01*
X027783Y016431D02*
X027856Y016431D01*
X027708Y016394D02*
X027708Y016321D01*
X027672Y016284D01*
X027562Y016284D01*
X027562Y016211D02*
X027562Y016431D01*
X027672Y016431D01*
X027708Y016394D01*
X027487Y016394D02*
X027451Y016431D01*
X027377Y016431D01*
X027341Y016394D01*
X027341Y016247D01*
X027377Y016211D01*
X027451Y016211D01*
X027487Y016247D01*
X027487Y016321D01*
X027414Y016321D01*
X027341Y015931D02*
X027341Y015784D01*
X027562Y015821D02*
X027708Y015821D01*
X027783Y015747D02*
X027783Y015931D01*
X027562Y015858D02*
X027562Y015711D01*
X027598Y016711D02*
X027672Y016711D01*
X027708Y016747D01*
X027783Y016711D02*
X027929Y016711D01*
X027783Y016711D02*
X027783Y016931D01*
X027708Y016894D02*
X027672Y016931D01*
X027598Y016931D01*
X027562Y016894D01*
X027562Y016747D01*
X027598Y016711D01*
X027487Y016747D02*
X027451Y016711D01*
X027377Y016711D01*
X027341Y016747D01*
X027377Y016821D02*
X027451Y016821D01*
X027487Y016784D01*
X027487Y016747D01*
X027377Y016821D02*
X027341Y016858D01*
X027341Y016894D01*
X027377Y016931D01*
X027451Y016931D01*
X027487Y016894D01*
X027451Y017211D02*
X027487Y017247D01*
X027487Y017321D01*
X027414Y017321D01*
X027487Y017394D02*
X027451Y017431D01*
X027377Y017431D01*
X027341Y017394D01*
X027341Y017247D01*
X027377Y017211D01*
X027451Y017211D01*
X027562Y017211D02*
X027562Y017431D01*
X027708Y017211D01*
X027708Y017431D01*
X027783Y017431D02*
X027893Y017431D01*
X027929Y017394D01*
X027929Y017247D01*
X027893Y017211D01*
X027783Y017211D01*
X027783Y017431D01*
X027635Y017711D02*
X027562Y017784D01*
X027562Y017931D01*
X027487Y017931D02*
X027341Y017931D01*
X027341Y017821D01*
X027414Y017858D01*
X027451Y017858D01*
X027487Y017821D01*
X027487Y017747D01*
X027451Y017711D01*
X027377Y017711D01*
X027341Y017747D01*
X027635Y017711D02*
X027708Y017784D01*
X027708Y017931D01*
X027672Y018211D02*
X027562Y018211D01*
X027562Y018431D01*
X027672Y018431D01*
X027708Y018394D01*
X027708Y018247D01*
X027672Y018211D01*
X027783Y018211D02*
X027783Y018358D01*
X027856Y018431D01*
X027929Y018358D01*
X027929Y018211D01*
X027929Y018321D02*
X027783Y018321D01*
X027487Y018284D02*
X027487Y018247D01*
X027451Y018211D01*
X027377Y018211D01*
X027341Y018247D01*
X027377Y018321D02*
X027451Y018321D01*
X027487Y018284D01*
X027487Y018394D02*
X027451Y018431D01*
X027377Y018431D01*
X027341Y018394D01*
X027341Y018358D01*
X027377Y018321D01*
X024920Y005091D02*
X024920Y004871D01*
X025066Y004871D01*
X024845Y004907D02*
X024809Y004871D01*
X024735Y004871D01*
X024699Y004907D01*
X024699Y005054D01*
X024735Y005091D01*
X024809Y005091D01*
X024845Y005054D01*
X024624Y005054D02*
X024588Y005091D01*
X024514Y005091D01*
X024478Y005054D01*
X024478Y005018D01*
X024514Y004981D01*
X024588Y004981D01*
X024624Y004944D01*
X024624Y004907D01*
X024588Y004871D01*
X024514Y004871D01*
X024478Y004907D01*
X024577Y003331D02*
X024541Y003294D01*
X024541Y003258D01*
X024577Y003221D01*
X024651Y003221D01*
X024687Y003184D01*
X024687Y003147D01*
X024651Y003111D01*
X024577Y003111D01*
X024541Y003147D01*
X024577Y003331D02*
X024651Y003331D01*
X024687Y003294D01*
X024762Y003331D02*
X024762Y003111D01*
X024872Y003111D01*
X024908Y003147D01*
X024908Y003294D01*
X024872Y003331D01*
X024762Y003331D01*
X024983Y003258D02*
X025056Y003331D01*
X025129Y003258D01*
X025129Y003111D01*
X025129Y003221D02*
X024983Y003221D01*
X024983Y003258D02*
X024983Y003111D01*
X026500Y002926D02*
X026574Y003000D01*
X026721Y003000D01*
X026610Y003000D02*
X026610Y002853D01*
X026574Y002853D02*
X026500Y002926D01*
X026574Y002853D02*
X026721Y002853D01*
X026684Y002779D02*
X026537Y002779D01*
X026500Y002742D01*
X026500Y002632D01*
X026721Y002632D01*
X026721Y002742D01*
X026684Y002779D01*
X026684Y002558D02*
X026647Y002558D01*
X026610Y002521D01*
X026610Y002447D01*
X026574Y002411D01*
X026537Y002411D01*
X026500Y002447D01*
X026500Y002521D01*
X026537Y002558D01*
X026684Y002558D02*
X026721Y002521D01*
X026721Y002447D01*
X026684Y002411D01*
X027600Y002447D02*
X027637Y002411D01*
X027674Y002411D01*
X027710Y002447D01*
X027710Y002521D01*
X027747Y002558D01*
X027784Y002558D01*
X027821Y002521D01*
X027821Y002447D01*
X027784Y002411D01*
X027600Y002447D02*
X027600Y002521D01*
X027637Y002558D01*
X027637Y002632D02*
X027600Y002668D01*
X027600Y002742D01*
X027637Y002779D01*
X027600Y002853D02*
X027821Y002853D01*
X027821Y003000D01*
X027784Y002779D02*
X027821Y002742D01*
X027821Y002668D01*
X027784Y002632D01*
X027637Y002632D01*
X007781Y000694D02*
X007781Y000658D01*
X007744Y000621D01*
X007671Y000621D01*
X007634Y000658D01*
X007634Y000694D01*
X007671Y000731D01*
X007744Y000731D01*
X007781Y000694D01*
X007744Y000621D02*
X007781Y000584D01*
X007781Y000547D01*
X007744Y000511D01*
X007671Y000511D01*
X007634Y000547D01*
X007634Y000584D01*
X007671Y000621D01*
X007560Y000511D02*
X007413Y000511D01*
X007486Y000511D02*
X007486Y000731D01*
X007413Y000658D01*
X007339Y000694D02*
X007302Y000731D01*
X007229Y000731D01*
X007192Y000694D01*
X007192Y000658D01*
X007229Y000621D01*
X007339Y000621D01*
X007339Y000694D02*
X007339Y000547D01*
X007302Y000511D01*
X007229Y000511D01*
X007192Y000547D01*
X007118Y000547D02*
X007081Y000511D01*
X007008Y000511D01*
X006971Y000547D01*
X006897Y000547D02*
X006860Y000511D01*
X006787Y000511D01*
X006750Y000547D01*
X006823Y000621D02*
X006860Y000621D01*
X006897Y000584D01*
X006897Y000547D01*
X006860Y000621D02*
X006897Y000658D01*
X006897Y000694D01*
X006860Y000731D01*
X006787Y000731D01*
X006750Y000694D01*
X006971Y000694D02*
X007008Y000731D01*
X007081Y000731D01*
X007118Y000694D01*
X007118Y000658D01*
X007081Y000621D01*
X007118Y000584D01*
X007118Y000547D01*
X007081Y000621D02*
X007044Y000621D01*
X006455Y000658D02*
X006418Y000658D01*
X006345Y000584D01*
X006345Y000511D02*
X006345Y000658D01*
X006271Y000621D02*
X006234Y000658D01*
X006161Y000658D01*
X006124Y000621D01*
X006124Y000547D01*
X006161Y000511D01*
X006234Y000511D01*
X006271Y000584D02*
X006124Y000584D01*
X006050Y000511D02*
X005940Y000511D01*
X005903Y000547D01*
X005903Y000621D01*
X005940Y000658D01*
X006050Y000658D01*
X006050Y000731D02*
X006050Y000511D01*
X006271Y000584D02*
X006271Y000621D01*
X005829Y000658D02*
X005792Y000658D01*
X005719Y000584D01*
X005719Y000511D02*
X005719Y000658D01*
X005644Y000694D02*
X005644Y000547D01*
X005608Y000511D01*
X005534Y000511D01*
X005498Y000547D01*
X005498Y000694D01*
X005534Y000731D01*
X005608Y000731D01*
X005644Y000694D01*
X005203Y000694D02*
X005203Y000658D01*
X005166Y000621D01*
X005056Y000621D01*
X004982Y000694D02*
X004945Y000731D01*
X004871Y000731D01*
X004835Y000694D01*
X004835Y000547D01*
X004871Y000511D01*
X004945Y000511D01*
X004982Y000547D01*
X005056Y000511D02*
X005166Y000511D01*
X005203Y000547D01*
X005203Y000584D01*
X005166Y000621D01*
X005203Y000694D02*
X005166Y000731D01*
X005056Y000731D01*
X005056Y000511D01*
X004761Y000621D02*
X004724Y000584D01*
X004614Y000584D01*
X004614Y000511D02*
X004614Y000731D01*
X004724Y000731D01*
X004761Y000694D01*
X004761Y000621D01*
X004319Y000621D02*
X004319Y000511D01*
X004319Y000621D02*
X004282Y000658D01*
X004172Y000658D01*
X004172Y000511D01*
X004098Y000547D02*
X004098Y000621D01*
X004061Y000658D01*
X003988Y000658D01*
X003951Y000621D01*
X003951Y000547D01*
X003988Y000511D01*
X004061Y000511D01*
X004098Y000547D01*
X003877Y000511D02*
X003804Y000511D01*
X003840Y000511D02*
X003840Y000658D01*
X003804Y000658D01*
X003729Y000658D02*
X003619Y000658D01*
X003583Y000621D01*
X003619Y000584D01*
X003693Y000584D01*
X003729Y000547D01*
X003693Y000511D01*
X003583Y000511D01*
X003508Y000511D02*
X003508Y000658D01*
X003362Y000658D02*
X003362Y000547D01*
X003398Y000511D01*
X003508Y000511D01*
X003287Y000731D02*
X003141Y000731D01*
X003141Y000511D01*
X003141Y000621D02*
X003214Y000621D01*
X003840Y000731D02*
X003840Y000768D01*
X006441Y001584D02*
X006514Y001511D01*
X006587Y001584D01*
X006587Y001731D01*
X006698Y001694D02*
X006698Y001511D01*
X006662Y001621D02*
X006735Y001621D01*
X006698Y001694D02*
X006735Y001731D01*
X006846Y001658D02*
X006919Y001658D01*
X006956Y001621D01*
X006956Y001511D01*
X006846Y001511D01*
X006809Y001547D01*
X006846Y001584D01*
X006956Y001584D01*
X007030Y001511D02*
X007030Y001658D01*
X007140Y001658D01*
X007177Y001621D01*
X007177Y001511D01*
X006441Y001584D02*
X006441Y001731D01*
X006477Y002511D02*
X006551Y002511D01*
X006587Y002547D01*
X006587Y002621D01*
X006514Y002621D01*
X006587Y002694D02*
X006551Y002731D01*
X006477Y002731D01*
X006441Y002694D01*
X006441Y002547D01*
X006477Y002511D01*
X006662Y002511D02*
X006662Y002731D01*
X006808Y002511D01*
X006808Y002731D01*
X006883Y002731D02*
X006993Y002731D01*
X007029Y002694D01*
X007029Y002547D01*
X006993Y002511D01*
X006883Y002511D01*
X006883Y002731D01*
D14*
X017006Y016701D03*
D15*
X017256Y018426D03*
X017256Y014976D03*
D16*
X017256Y016201D03*
X017256Y017201D03*
X029081Y011801D03*
X029081Y010801D03*
X029081Y009801D03*
X029081Y008801D03*
X029081Y007801D03*
X029081Y006801D03*
X029081Y005801D03*
X024281Y004601D03*
X024281Y003601D03*
D17*
X014995Y005401D02*
X014695Y005101D01*
X014695Y005026D01*
X014535Y005026D02*
X014385Y005176D01*
X014460Y005176D02*
X014235Y005176D01*
X014235Y005026D02*
X014235Y005476D01*
X014460Y005476D01*
X014535Y005401D01*
X014535Y005251D01*
X014460Y005176D01*
X014695Y005476D02*
X014995Y005476D01*
X014995Y005401D01*
X014895Y003076D02*
X014745Y003001D01*
X014595Y002851D01*
X014820Y002851D01*
X014895Y002776D01*
X014895Y002701D01*
X014820Y002626D01*
X014670Y002626D01*
X014595Y002701D01*
X014595Y002851D01*
X014435Y002851D02*
X014360Y002776D01*
X014135Y002776D01*
X014285Y002776D02*
X014435Y002626D01*
X014435Y002851D02*
X014435Y003001D01*
X014360Y003076D01*
X014135Y003076D01*
X014135Y002626D01*
X009920Y004626D02*
X009920Y005076D01*
X009695Y004851D01*
X009995Y004851D01*
X009535Y004851D02*
X009460Y004776D01*
X009235Y004776D01*
X009385Y004776D02*
X009535Y004626D01*
X009535Y004851D02*
X009535Y005001D01*
X009460Y005076D01*
X009235Y005076D01*
X009235Y004626D01*
X009235Y008626D02*
X009235Y009076D01*
X009460Y009076D01*
X009535Y009001D01*
X009535Y008851D01*
X009460Y008776D01*
X009235Y008776D01*
X009385Y008776D02*
X009535Y008626D01*
X009695Y008701D02*
X009770Y008626D01*
X009920Y008626D01*
X009995Y008701D01*
X009995Y008776D01*
X009920Y008851D01*
X009845Y008851D01*
X009920Y008851D02*
X009995Y008926D01*
X009995Y009001D01*
X009920Y009076D01*
X009770Y009076D01*
X009695Y009001D01*
X009695Y012626D02*
X009995Y012926D01*
X009995Y013001D01*
X009920Y013076D01*
X009770Y013076D01*
X009695Y013001D01*
X009535Y013001D02*
X009535Y012851D01*
X009460Y012776D01*
X009235Y012776D01*
X009385Y012776D02*
X009535Y012626D01*
X009695Y012626D02*
X009995Y012626D01*
X009535Y013001D02*
X009460Y013076D01*
X009235Y013076D01*
X009235Y012626D01*
X003631Y012701D02*
X003631Y014851D01*
X003631Y016701D02*
X003631Y018851D01*
X009235Y017076D02*
X009235Y016626D01*
X009235Y016776D02*
X009460Y016776D01*
X009535Y016851D01*
X009535Y017001D01*
X009460Y017076D01*
X009235Y017076D01*
X009695Y016926D02*
X009845Y017076D01*
X009845Y016626D01*
X009695Y016626D02*
X009995Y016626D01*
X009535Y016626D02*
X009385Y016776D01*
X015735Y016806D02*
X015735Y016506D01*
X015810Y016431D01*
X015960Y016431D01*
X016035Y016506D01*
X016035Y016806D01*
X015960Y016881D01*
X015810Y016881D01*
X015735Y016806D01*
X015885Y016581D02*
X016035Y016431D01*
X016195Y016431D02*
X016495Y016431D01*
X016345Y016431D02*
X016345Y016881D01*
X016195Y016731D01*
X020255Y015766D02*
X020255Y015465D01*
X020480Y015465D01*
X020405Y015616D01*
X020405Y015691D01*
X020480Y015766D01*
X020631Y015766D01*
X020706Y015691D01*
X020706Y015540D01*
X020631Y015465D01*
X020706Y015305D02*
X020555Y015155D01*
X020555Y015230D02*
X020555Y015005D01*
X020706Y015005D02*
X020255Y015005D01*
X020255Y015230D01*
X020330Y015305D01*
X020480Y015305D01*
X020555Y015230D01*
X020860Y017976D02*
X021010Y017976D01*
X021085Y018051D01*
X021245Y017976D02*
X021545Y017976D01*
X021395Y017976D02*
X021395Y018426D01*
X021245Y018276D01*
X021085Y018351D02*
X021010Y018426D01*
X020860Y018426D01*
X020785Y018351D01*
X020785Y018051D01*
X020860Y017976D01*
X003631Y010851D02*
X003631Y008701D01*
X003631Y006851D02*
X003631Y004701D01*
D18*
X024431Y004601D02*
X026681Y004601D01*
X026681Y003601D02*
X024431Y003601D01*
X029231Y005801D02*
X031481Y005801D01*
X031481Y006801D02*
X029231Y006801D01*
X029231Y007801D02*
X031481Y007801D01*
X031481Y008801D02*
X029231Y008801D01*
X029231Y009801D02*
X031481Y009801D01*
X031481Y010801D02*
X029231Y010801D01*
X029231Y011801D02*
X031481Y011801D01*
D19*
X027781Y011801D03*
X027781Y010801D03*
X027781Y009801D03*
X027781Y008801D03*
X027781Y007801D03*
X027781Y006801D03*
X027781Y005801D03*
X022981Y004601D03*
X022981Y003601D03*
D20*
X023011Y005271D02*
X023011Y005631D01*
X022951Y005631D02*
X023071Y005631D01*
X023196Y005571D02*
X023256Y005631D01*
X023376Y005631D01*
X023436Y005571D01*
X023436Y005511D01*
X023196Y005271D01*
X023436Y005271D01*
X023564Y005331D02*
X023564Y005571D01*
X023624Y005631D01*
X023744Y005631D01*
X023805Y005571D01*
X023933Y005451D02*
X024173Y005451D01*
X024301Y005511D02*
X024361Y005451D01*
X024481Y005451D01*
X024541Y005391D01*
X024541Y005331D01*
X024481Y005271D01*
X024361Y005271D01*
X024301Y005331D01*
X024301Y005511D02*
X024301Y005571D01*
X024361Y005631D01*
X024481Y005631D01*
X024541Y005571D01*
X024669Y005631D02*
X024669Y005271D01*
X024909Y005271D01*
X025038Y005271D02*
X025278Y005271D01*
X025406Y005271D02*
X025406Y005631D01*
X025646Y005631D01*
X025774Y005571D02*
X025774Y005331D01*
X025834Y005271D01*
X025954Y005271D01*
X026014Y005331D01*
X026014Y005571D02*
X025954Y005631D01*
X025834Y005631D01*
X025774Y005571D01*
X025526Y005451D02*
X025406Y005451D01*
X025406Y005271D02*
X025646Y005271D01*
X025038Y005271D02*
X025038Y005631D01*
X024909Y005631D02*
X024669Y005631D01*
X024669Y005451D02*
X024789Y005451D01*
X023805Y005331D02*
X023744Y005271D01*
X023624Y005271D01*
X023564Y005331D01*
X023071Y005271D02*
X022951Y005271D01*
X021622Y005451D02*
X021562Y005391D01*
X021382Y005391D01*
X021382Y005271D02*
X021382Y005631D01*
X021562Y005631D01*
X021622Y005571D01*
X021622Y005451D01*
X021254Y005331D02*
X021254Y005631D01*
X021014Y005631D02*
X021014Y005331D01*
X021074Y005271D01*
X021194Y005271D01*
X021254Y005331D01*
X020886Y005271D02*
X020646Y005271D01*
X020646Y005631D01*
X020517Y005271D02*
X020277Y005271D01*
X020277Y005631D01*
X020149Y005631D02*
X020149Y005331D01*
X020089Y005271D01*
X019969Y005271D01*
X019909Y005331D01*
X019909Y005631D01*
X019781Y005571D02*
X019781Y005451D01*
X019721Y005391D01*
X019541Y005391D01*
X019541Y005271D02*
X019541Y005631D01*
X019721Y005631D01*
X019781Y005571D01*
X019413Y005451D02*
X019172Y005451D01*
X019044Y005571D02*
X018984Y005631D01*
X018864Y005631D01*
X018804Y005571D01*
X018804Y005331D01*
X018864Y005271D01*
X018984Y005271D01*
X019044Y005331D01*
X018676Y005271D02*
X018436Y005271D01*
X018676Y005511D01*
X018676Y005571D01*
X018616Y005631D01*
X018496Y005631D01*
X018436Y005571D01*
X018310Y005631D02*
X018190Y005631D01*
X018250Y005631D02*
X018250Y005271D01*
X018190Y005271D02*
X018310Y005271D01*
X021400Y006752D02*
X021460Y006692D01*
X021701Y006692D01*
X021761Y006752D01*
X021761Y006872D01*
X021701Y006932D01*
X021580Y006932D01*
X021580Y006812D01*
X021460Y006932D02*
X021400Y006872D01*
X021400Y006752D01*
X021400Y007060D02*
X021400Y007241D01*
X021460Y007301D01*
X021580Y007301D01*
X021640Y007241D01*
X021640Y007060D01*
X021761Y007060D02*
X021400Y007060D01*
X021400Y007429D02*
X021400Y007549D01*
X021400Y007489D02*
X021761Y007489D01*
X021761Y007429D02*
X021761Y007549D01*
X021701Y007674D02*
X021460Y007674D01*
X021400Y007734D01*
X021400Y007854D01*
X021460Y007914D01*
X021701Y007914D01*
X021761Y007854D01*
X021761Y007734D01*
X021701Y007674D01*
X021580Y008043D02*
X021580Y008283D01*
X021520Y008411D02*
X021580Y008471D01*
X021580Y008591D01*
X021640Y008651D01*
X021701Y008651D01*
X021761Y008591D01*
X021761Y008471D01*
X021701Y008411D01*
X021520Y008411D02*
X021460Y008411D01*
X021400Y008471D01*
X021400Y008591D01*
X021460Y008651D01*
X021400Y008779D02*
X021761Y008779D01*
X021761Y009019D01*
X021761Y009147D02*
X021761Y009388D01*
X021761Y009516D02*
X021761Y009756D01*
X021701Y009884D02*
X021460Y009884D01*
X021400Y009944D01*
X021400Y010064D01*
X021460Y010124D01*
X021400Y010252D02*
X021400Y010493D01*
X021400Y010372D02*
X021761Y010372D01*
X021701Y010124D02*
X021761Y010064D01*
X021761Y009944D01*
X021701Y009884D01*
X021580Y009636D02*
X021580Y009516D01*
X021400Y009516D02*
X021761Y009516D01*
X021400Y009516D02*
X021400Y009756D01*
X021400Y009147D02*
X021761Y009147D01*
X021580Y008899D02*
X021580Y008779D01*
X021400Y008779D02*
X021400Y009019D01*
X018246Y011491D02*
X017939Y011491D01*
X018092Y011491D02*
X018092Y011951D01*
X017939Y011798D01*
X017785Y011721D02*
X017785Y011568D01*
X017708Y011491D01*
X017555Y011491D01*
X017478Y011568D01*
X017478Y011721D02*
X017632Y011798D01*
X017708Y011798D01*
X017785Y011721D01*
X017785Y011951D02*
X017478Y011951D01*
X017478Y011721D01*
X017325Y011644D02*
X017248Y011721D01*
X017018Y011721D01*
X017018Y011568D01*
X017095Y011491D01*
X017248Y011491D01*
X017325Y011568D01*
X017325Y011644D01*
X017171Y011874D02*
X017018Y011721D01*
X016864Y011644D02*
X016788Y011721D01*
X016558Y011721D01*
X016558Y011568D01*
X016634Y011491D01*
X016788Y011491D01*
X016864Y011568D01*
X016864Y011644D01*
X016711Y011874D02*
X016558Y011721D01*
X016711Y011874D02*
X016864Y011951D01*
X017171Y011874D02*
X017325Y011951D01*
X016404Y011951D02*
X016097Y011491D01*
X015944Y011491D02*
X015944Y011798D01*
X015790Y011951D01*
X015637Y011798D01*
X015637Y011491D01*
X015483Y011491D02*
X015483Y011951D01*
X015330Y011798D01*
X015177Y011951D01*
X015177Y011491D01*
X015637Y011721D02*
X015944Y011721D01*
X016097Y011951D02*
X016404Y011491D01*
X022072Y014271D02*
X022072Y014511D01*
X022192Y014631D01*
X022313Y014511D01*
X022313Y014271D01*
X022441Y014271D02*
X022621Y014271D01*
X022681Y014331D01*
X022681Y014571D01*
X022621Y014631D01*
X022441Y014631D01*
X022441Y014271D01*
X022313Y014451D02*
X022072Y014451D01*
X022809Y014631D02*
X022809Y014271D01*
X022989Y014271D01*
X023049Y014331D01*
X023049Y014571D01*
X022989Y014631D01*
X022809Y014631D01*
X023177Y014631D02*
X023177Y014271D01*
X023177Y014391D02*
X023357Y014391D01*
X023417Y014451D01*
X023417Y014571D01*
X023357Y014631D01*
X023177Y014631D01*
X023546Y014631D02*
X023546Y014271D01*
X023786Y014271D01*
X023914Y014331D02*
X023974Y014271D01*
X024094Y014271D01*
X024154Y014331D01*
X024154Y014391D01*
X024094Y014451D01*
X023974Y014451D01*
X023914Y014511D01*
X023914Y014571D01*
X023974Y014631D01*
X024094Y014631D01*
X024154Y014571D01*
X024282Y014571D02*
X024282Y014511D01*
X024342Y014451D01*
X024462Y014451D01*
X024522Y014391D01*
X024522Y014331D01*
X024462Y014271D01*
X024342Y014271D01*
X024282Y014331D01*
X024282Y014571D02*
X024342Y014631D01*
X024462Y014631D01*
X024522Y014571D01*
X023786Y014631D02*
X023546Y014631D01*
X023546Y014451D02*
X023666Y014451D01*
X023417Y014271D02*
X023297Y014391D01*
X025501Y018587D02*
X025501Y018706D01*
X025619Y018587D01*
X025579Y018666D02*
X025619Y018706D01*
X026012Y018706D01*
X026052Y018666D01*
X026012Y018706D02*
X026012Y018824D01*
X026131Y018824D02*
X026131Y018706D01*
X026012Y018587D01*
X026131Y018587D02*
X026131Y018706D01*
X025619Y018706D02*
X025619Y018824D01*
X025501Y018824D02*
X025501Y018706D01*
X025560Y009443D02*
X025500Y009383D01*
X025500Y009263D01*
X025560Y009203D01*
X025801Y009203D01*
X025861Y009263D01*
X025861Y009383D01*
X025801Y009443D01*
X025560Y009443D01*
X025500Y009077D02*
X025500Y008957D01*
X025500Y009017D02*
X025861Y009017D01*
X025861Y008957D02*
X025861Y009077D01*
X025680Y008829D02*
X025740Y008769D01*
X025740Y008589D01*
X025861Y008589D02*
X025500Y008589D01*
X025500Y008769D01*
X025560Y008829D01*
X025680Y008829D01*
X025680Y008461D02*
X025680Y008341D01*
X025680Y008461D02*
X025801Y008461D01*
X025861Y008401D01*
X025861Y008281D01*
X025801Y008221D01*
X025560Y008221D01*
X025500Y008281D01*
X025500Y008401D01*
X025560Y008461D01*
X026143Y005631D02*
X026383Y005631D01*
X026263Y005631D02*
X026263Y005271D01*
X014942Y000931D02*
X014702Y000931D01*
X014822Y000931D02*
X014822Y000571D01*
X014574Y000631D02*
X014514Y000571D01*
X014394Y000571D01*
X014334Y000631D01*
X014334Y000871D01*
X014394Y000931D01*
X014514Y000931D01*
X014574Y000871D01*
X014206Y000931D02*
X013965Y000931D01*
X013965Y000571D01*
X014206Y000571D01*
X014085Y000751D02*
X013965Y000751D01*
X013837Y000571D02*
X013597Y000571D01*
X013597Y000931D01*
X013469Y000931D02*
X013229Y000931D01*
X013229Y000571D01*
X013469Y000571D01*
X013349Y000751D02*
X013229Y000751D01*
X013101Y000691D02*
X013101Y000631D01*
X013041Y000571D01*
X012920Y000571D01*
X012860Y000631D01*
X012920Y000751D02*
X013041Y000751D01*
X013101Y000691D01*
X013101Y000871D02*
X013041Y000931D01*
X012920Y000931D01*
X012860Y000871D01*
X012860Y000811D01*
X012920Y000751D01*
X012732Y000751D02*
X012492Y000751D01*
X012364Y000751D02*
X012304Y000691D01*
X012124Y000691D01*
X012244Y000691D02*
X012364Y000571D01*
X012364Y000751D02*
X012364Y000871D01*
X012304Y000931D01*
X012124Y000931D01*
X012124Y000571D01*
X011996Y000571D02*
X011755Y000571D01*
X011755Y000931D01*
X011996Y000931D01*
X011876Y000751D02*
X011755Y000751D01*
X011627Y000571D02*
X011627Y000931D01*
X011387Y000931D02*
X011387Y000571D01*
X011507Y000691D01*
X011627Y000571D01*
X011259Y000631D02*
X011259Y000871D01*
X011199Y000931D01*
X011079Y000931D01*
X011019Y000871D01*
X011019Y000631D01*
X011079Y000571D01*
X011199Y000571D01*
X011259Y000631D01*
X010891Y000751D02*
X010831Y000691D01*
X010651Y000691D01*
X010651Y000571D02*
X010651Y000931D01*
X010831Y000931D01*
X010891Y000871D01*
X010891Y000751D01*
X006462Y003281D02*
X006342Y003401D01*
X006402Y003401D02*
X006222Y003401D01*
X006222Y003281D02*
X006222Y003642D01*
X006402Y003642D01*
X006462Y003582D01*
X006462Y003461D01*
X006402Y003401D01*
X006094Y003281D02*
X005853Y003281D01*
X005853Y003642D01*
X006094Y003642D01*
X005973Y003461D02*
X005853Y003461D01*
X005725Y003281D02*
X005725Y003642D01*
X005485Y003642D02*
X005485Y003281D01*
X005605Y003401D01*
X005725Y003281D01*
X005357Y003341D02*
X005357Y003582D01*
X005297Y003642D01*
X005177Y003642D01*
X005117Y003582D01*
X005117Y003341D01*
X005177Y003281D01*
X005297Y003281D01*
X005357Y003341D01*
X004989Y003461D02*
X004989Y003582D01*
X004929Y003642D01*
X004748Y003642D01*
X004748Y003281D01*
X004748Y003401D02*
X004929Y003401D01*
X004989Y003461D01*
X004620Y003461D02*
X004380Y003461D01*
X004252Y003281D02*
X004252Y003642D01*
X004012Y003642D02*
X004012Y003281D01*
X003884Y003281D02*
X003884Y003522D01*
X003764Y003642D01*
X003643Y003522D01*
X003643Y003281D01*
X003643Y003461D02*
X003884Y003461D01*
X004012Y003642D02*
X004252Y003281D01*
X003515Y003642D02*
X003275Y003642D01*
X003275Y003281D01*
X003275Y003461D02*
X003395Y003461D01*
X005117Y007181D02*
X005117Y007542D01*
X005357Y007542D01*
X005485Y007422D02*
X005605Y007542D01*
X005725Y007422D01*
X005725Y007181D01*
X005853Y007181D02*
X005853Y007542D01*
X006094Y007181D01*
X006094Y007542D01*
X006222Y007482D02*
X006282Y007542D01*
X006402Y007542D01*
X006462Y007482D01*
X006462Y007422D01*
X006402Y007361D01*
X006462Y007301D01*
X006462Y007241D01*
X006402Y007181D01*
X006282Y007181D01*
X006222Y007241D01*
X006342Y007361D02*
X006402Y007361D01*
X005725Y007361D02*
X005485Y007361D01*
X005485Y007422D02*
X005485Y007181D01*
X005237Y007361D02*
X005117Y007361D01*
X005117Y011181D02*
X005117Y011542D01*
X005357Y011542D01*
X005485Y011422D02*
X005485Y011181D01*
X005485Y011361D02*
X005725Y011361D01*
X005725Y011422D02*
X005725Y011181D01*
X005853Y011181D02*
X005853Y011542D01*
X006094Y011181D01*
X006094Y011542D01*
X006222Y011482D02*
X006282Y011542D01*
X006402Y011542D01*
X006462Y011482D01*
X006462Y011422D01*
X006222Y011181D01*
X006462Y011181D01*
X005725Y011422D02*
X005605Y011542D01*
X005485Y011422D01*
X005237Y011361D02*
X005117Y011361D01*
X005117Y015181D02*
X005117Y015542D01*
X005357Y015542D01*
X005485Y015422D02*
X005605Y015542D01*
X005725Y015422D01*
X005725Y015181D01*
X005853Y015181D02*
X005853Y015542D01*
X006094Y015181D01*
X006094Y015542D01*
X006222Y015422D02*
X006342Y015542D01*
X006342Y015181D01*
X006222Y015181D02*
X006462Y015181D01*
X005725Y015361D02*
X005485Y015361D01*
X005485Y015422D02*
X005485Y015181D01*
X005237Y015361D02*
X005117Y015361D01*
X005117Y019181D02*
X005117Y019542D01*
X005357Y019542D01*
X005485Y019422D02*
X005605Y019542D01*
X005725Y019422D01*
X005725Y019181D01*
X005853Y019181D02*
X005853Y019542D01*
X006094Y019181D01*
X006094Y019542D01*
X006222Y019482D02*
X006282Y019542D01*
X006402Y019542D01*
X006462Y019482D01*
X006222Y019241D01*
X006282Y019181D01*
X006402Y019181D01*
X006462Y019241D01*
X006462Y019482D01*
X006222Y019482D02*
X006222Y019241D01*
X005725Y019361D02*
X005485Y019361D01*
X005485Y019422D02*
X005485Y019181D01*
X005237Y019361D02*
X005117Y019361D01*
D21*
X007511Y017701D03*
X010351Y017701D03*
X010351Y013701D03*
X007511Y013701D03*
X007511Y009701D03*
X010351Y009701D03*
X010351Y005701D03*
X007511Y005701D03*
X014911Y004601D03*
X014911Y003601D03*
X017751Y003601D03*
X017751Y004601D03*
D22*
X021331Y013281D03*
X021331Y016121D03*
D23*
X025186Y015139D02*
X025186Y018863D01*
X027075Y018863D01*
X027075Y015139D01*
X025186Y015139D01*
X025501Y015099D02*
X025501Y014942D01*
X025658Y014942D01*
X025658Y015099D01*
X025855Y015099D02*
X025855Y014942D01*
X026406Y014942D01*
X026406Y015099D01*
X026603Y015099D02*
X026603Y014942D01*
X026760Y014942D01*
X026760Y015099D01*
X026918Y015454D02*
X026918Y018548D01*
X025343Y018548D01*
X025343Y015454D01*
X026918Y015454D01*
X027962Y014101D02*
X027964Y014152D01*
X027970Y014203D01*
X027980Y014253D01*
X027993Y014303D01*
X028011Y014351D01*
X028031Y014398D01*
X028056Y014443D01*
X028084Y014486D01*
X028115Y014527D01*
X028149Y014565D01*
X028186Y014600D01*
X028225Y014633D01*
X028267Y014663D01*
X028311Y014689D01*
X028357Y014711D01*
X028405Y014731D01*
X028454Y014746D01*
X028504Y014758D01*
X028554Y014766D01*
X028605Y014770D01*
X028657Y014770D01*
X028708Y014766D01*
X028758Y014758D01*
X028808Y014746D01*
X028857Y014731D01*
X028905Y014711D01*
X028951Y014689D01*
X028995Y014663D01*
X029037Y014633D01*
X029076Y014600D01*
X029113Y014565D01*
X029147Y014527D01*
X029178Y014486D01*
X029206Y014443D01*
X029231Y014398D01*
X029251Y014351D01*
X029269Y014303D01*
X029282Y014253D01*
X029292Y014203D01*
X029298Y014152D01*
X029300Y014101D01*
X029298Y014050D01*
X029292Y013999D01*
X029282Y013949D01*
X029269Y013899D01*
X029251Y013851D01*
X029231Y013804D01*
X029206Y013759D01*
X029178Y013716D01*
X029147Y013675D01*
X029113Y013637D01*
X029076Y013602D01*
X029037Y013569D01*
X028995Y013539D01*
X028951Y013513D01*
X028905Y013491D01*
X028857Y013471D01*
X028808Y013456D01*
X028758Y013444D01*
X028708Y013436D01*
X028657Y013432D01*
X028605Y013432D01*
X028554Y013436D01*
X028504Y013444D01*
X028454Y013456D01*
X028405Y013471D01*
X028357Y013491D01*
X028311Y013513D01*
X028267Y013539D01*
X028225Y013569D01*
X028186Y013602D01*
X028149Y013637D01*
X028115Y013675D01*
X028084Y013716D01*
X028056Y013759D01*
X028031Y013804D01*
X028011Y013851D01*
X027993Y013899D01*
X027980Y013949D01*
X027970Y013999D01*
X027964Y014050D01*
X027962Y014101D01*
X026760Y018902D02*
X026760Y019060D01*
X026603Y019060D01*
X026603Y018902D01*
X026406Y018902D02*
X026406Y019060D01*
X025855Y019060D01*
X025855Y018902D01*
X025658Y018902D02*
X025658Y019060D01*
X025501Y019060D01*
X025501Y018902D01*
X017359Y011073D02*
X015902Y011073D01*
X015902Y009128D01*
X017359Y009128D01*
X017359Y011073D01*
X027962Y003101D02*
X027964Y003152D01*
X027970Y003203D01*
X027980Y003253D01*
X027993Y003303D01*
X028011Y003351D01*
X028031Y003398D01*
X028056Y003443D01*
X028084Y003486D01*
X028115Y003527D01*
X028149Y003565D01*
X028186Y003600D01*
X028225Y003633D01*
X028267Y003663D01*
X028311Y003689D01*
X028357Y003711D01*
X028405Y003731D01*
X028454Y003746D01*
X028504Y003758D01*
X028554Y003766D01*
X028605Y003770D01*
X028657Y003770D01*
X028708Y003766D01*
X028758Y003758D01*
X028808Y003746D01*
X028857Y003731D01*
X028905Y003711D01*
X028951Y003689D01*
X028995Y003663D01*
X029037Y003633D01*
X029076Y003600D01*
X029113Y003565D01*
X029147Y003527D01*
X029178Y003486D01*
X029206Y003443D01*
X029231Y003398D01*
X029251Y003351D01*
X029269Y003303D01*
X029282Y003253D01*
X029292Y003203D01*
X029298Y003152D01*
X029300Y003101D01*
X029298Y003050D01*
X029292Y002999D01*
X029282Y002949D01*
X029269Y002899D01*
X029251Y002851D01*
X029231Y002804D01*
X029206Y002759D01*
X029178Y002716D01*
X029147Y002675D01*
X029113Y002637D01*
X029076Y002602D01*
X029037Y002569D01*
X028995Y002539D01*
X028951Y002513D01*
X028905Y002491D01*
X028857Y002471D01*
X028808Y002456D01*
X028758Y002444D01*
X028708Y002436D01*
X028657Y002432D01*
X028605Y002432D01*
X028554Y002436D01*
X028504Y002444D01*
X028454Y002456D01*
X028405Y002471D01*
X028357Y002491D01*
X028311Y002513D01*
X028267Y002539D01*
X028225Y002569D01*
X028186Y002602D01*
X028149Y002637D01*
X028115Y002675D01*
X028084Y002716D01*
X028056Y002759D01*
X028031Y002804D01*
X028011Y002851D01*
X027993Y002899D01*
X027980Y002949D01*
X027970Y002999D01*
X027964Y003050D01*
X027962Y003101D01*
X007962Y020101D02*
X007964Y020152D01*
X007970Y020203D01*
X007980Y020253D01*
X007993Y020303D01*
X008011Y020351D01*
X008031Y020398D01*
X008056Y020443D01*
X008084Y020486D01*
X008115Y020527D01*
X008149Y020565D01*
X008186Y020600D01*
X008225Y020633D01*
X008267Y020663D01*
X008311Y020689D01*
X008357Y020711D01*
X008405Y020731D01*
X008454Y020746D01*
X008504Y020758D01*
X008554Y020766D01*
X008605Y020770D01*
X008657Y020770D01*
X008708Y020766D01*
X008758Y020758D01*
X008808Y020746D01*
X008857Y020731D01*
X008905Y020711D01*
X008951Y020689D01*
X008995Y020663D01*
X009037Y020633D01*
X009076Y020600D01*
X009113Y020565D01*
X009147Y020527D01*
X009178Y020486D01*
X009206Y020443D01*
X009231Y020398D01*
X009251Y020351D01*
X009269Y020303D01*
X009282Y020253D01*
X009292Y020203D01*
X009298Y020152D01*
X009300Y020101D01*
X009298Y020050D01*
X009292Y019999D01*
X009282Y019949D01*
X009269Y019899D01*
X009251Y019851D01*
X009231Y019804D01*
X009206Y019759D01*
X009178Y019716D01*
X009147Y019675D01*
X009113Y019637D01*
X009076Y019602D01*
X009037Y019569D01*
X008995Y019539D01*
X008951Y019513D01*
X008905Y019491D01*
X008857Y019471D01*
X008808Y019456D01*
X008758Y019444D01*
X008708Y019436D01*
X008657Y019432D01*
X008605Y019432D01*
X008554Y019436D01*
X008504Y019444D01*
X008454Y019456D01*
X008405Y019471D01*
X008357Y019491D01*
X008311Y019513D01*
X008267Y019539D01*
X008225Y019569D01*
X008186Y019602D01*
X008149Y019637D01*
X008115Y019675D01*
X008084Y019716D01*
X008056Y019759D01*
X008031Y019804D01*
X008011Y019851D01*
X007993Y019899D01*
X007980Y019949D01*
X007970Y019999D01*
X007964Y020050D01*
X007962Y020101D01*
D24*
X004203Y018765D02*
X004203Y018693D01*
X004131Y018622D01*
X004203Y018550D01*
X004203Y018478D01*
X004131Y018406D01*
X003987Y018406D01*
X003916Y018478D01*
X004059Y018622D02*
X004131Y018622D01*
X004203Y018765D02*
X004131Y018837D01*
X003987Y018837D01*
X003916Y018765D01*
X004009Y016857D02*
X004009Y016426D01*
X003866Y016426D02*
X004153Y016426D01*
X003866Y016713D02*
X004009Y016857D01*
X003987Y014837D02*
X004131Y014837D01*
X004203Y014765D01*
X004203Y014693D01*
X004131Y014622D01*
X004203Y014550D01*
X004203Y014478D01*
X004131Y014406D01*
X003987Y014406D01*
X003916Y014478D01*
X004059Y014622D02*
X004131Y014622D01*
X003916Y014765D02*
X003987Y014837D01*
X004009Y012857D02*
X004009Y012426D01*
X003866Y012426D02*
X004153Y012426D01*
X003866Y012713D02*
X004009Y012857D01*
X003987Y010837D02*
X004131Y010837D01*
X004203Y010765D01*
X004203Y010693D01*
X004131Y010622D01*
X004203Y010550D01*
X004203Y010478D01*
X004131Y010406D01*
X003987Y010406D01*
X003916Y010478D01*
X004059Y010622D02*
X004131Y010622D01*
X003916Y010765D02*
X003987Y010837D01*
X004009Y008857D02*
X004009Y008426D01*
X003866Y008426D02*
X004153Y008426D01*
X003866Y008713D02*
X004009Y008857D01*
X003987Y006837D02*
X004131Y006837D01*
X004203Y006765D01*
X004203Y006693D01*
X004131Y006622D01*
X004203Y006550D01*
X004203Y006478D01*
X004131Y006406D01*
X003987Y006406D01*
X003916Y006478D01*
X004059Y006622D02*
X004131Y006622D01*
X003916Y006765D02*
X003987Y006837D01*
X004009Y004857D02*
X004009Y004426D01*
X003866Y004426D02*
X004153Y004426D01*
X003866Y004713D02*
X004009Y004857D01*
X003987Y002737D02*
X003916Y002665D01*
X003987Y002737D02*
X004131Y002737D01*
X004203Y002665D01*
X004203Y002593D01*
X003916Y002306D01*
X004203Y002306D01*
X004009Y001757D02*
X004009Y001326D01*
X003866Y001326D02*
X004153Y001326D01*
X003866Y001613D02*
X004009Y001757D01*
D25*
X001181Y001451D02*
X001041Y001581D01*
X001181Y001451D02*
X003631Y001451D01*
X003631Y001601D02*
X003631Y001101D01*
X004881Y001101D01*
X004881Y001351D01*
X004631Y001351D01*
X004631Y001851D01*
X004881Y001851D01*
X004881Y002351D01*
X004631Y002351D01*
X004631Y002851D01*
X004881Y002851D01*
X004881Y003101D01*
X003631Y003101D01*
X003631Y002751D01*
X001181Y002751D01*
X001041Y002621D01*
X000481Y002601D02*
X000281Y002501D01*
X000281Y002121D01*
X000281Y002081D01*
X000281Y002121D02*
X000281Y001701D01*
X000481Y001601D01*
X003631Y001601D01*
X003631Y002751D01*
X003631Y002601D02*
X000481Y002601D01*
X001181Y004551D02*
X001041Y004681D01*
X001181Y004551D02*
X003631Y004551D01*
X003631Y004701D02*
X003631Y004201D01*
X004881Y004201D01*
X004881Y004451D01*
X004631Y004451D01*
X004631Y004951D01*
X004881Y004951D01*
X004881Y005451D01*
X004631Y005451D01*
X004631Y005951D01*
X004881Y005951D01*
X004881Y006451D01*
X004631Y006451D01*
X004631Y006951D01*
X004881Y006951D01*
X004881Y007201D01*
X003631Y007201D01*
X003631Y006851D01*
X001181Y006851D01*
X001041Y006721D01*
X000481Y006701D02*
X000281Y006601D01*
X000281Y006181D01*
X000281Y006221D02*
X000281Y004801D01*
X000481Y004701D01*
X003631Y004701D01*
X003631Y006701D02*
X000481Y006701D01*
X001181Y008551D02*
X001041Y008681D01*
X001181Y008551D02*
X003631Y008551D01*
X003631Y008701D02*
X000481Y008701D01*
X000281Y008801D01*
X000281Y010221D01*
X000281Y010181D02*
X000281Y010601D01*
X000481Y010701D01*
X003631Y010701D01*
X003631Y010851D02*
X001181Y010851D01*
X001041Y010721D01*
X001181Y012551D02*
X001041Y012681D01*
X001181Y012551D02*
X003631Y012551D01*
X003631Y012701D02*
X000481Y012701D01*
X000281Y012801D01*
X000281Y014221D01*
X000281Y014181D02*
X000281Y014601D01*
X000481Y014701D01*
X003631Y014701D01*
X003631Y014851D02*
X001181Y014851D01*
X001041Y014721D01*
X001181Y016551D02*
X001041Y016681D01*
X001181Y016551D02*
X003631Y016551D01*
X003631Y016701D02*
X003631Y016201D01*
X004881Y016201D01*
X004881Y016451D01*
X004631Y016451D01*
X004631Y016951D01*
X004881Y016951D01*
X004881Y017451D01*
X004631Y017451D01*
X004631Y017951D01*
X004881Y017951D01*
X004881Y018451D01*
X004631Y018451D01*
X004631Y018951D01*
X004881Y018951D01*
X004881Y019201D01*
X003631Y019201D01*
X003631Y018851D01*
X001181Y018851D01*
X001041Y018721D01*
X000481Y018701D02*
X000281Y018601D01*
X000281Y018181D01*
X000281Y018221D02*
X000281Y016801D01*
X000481Y016701D01*
X003631Y016701D01*
X003631Y015201D02*
X003631Y014851D01*
X003631Y015201D02*
X004881Y015201D01*
X004881Y014951D01*
X004631Y014951D01*
X004631Y014451D01*
X004881Y014451D01*
X004881Y013951D01*
X004631Y013951D01*
X004631Y013451D01*
X004881Y013451D01*
X004881Y012951D01*
X004631Y012951D01*
X004631Y012451D01*
X004881Y012451D01*
X004881Y012201D01*
X003631Y012201D01*
X003631Y012701D01*
X003631Y011201D02*
X003631Y010851D01*
X003631Y011201D02*
X004881Y011201D01*
X004881Y010951D01*
X004631Y010951D01*
X004631Y010451D01*
X004881Y010451D01*
X004881Y009951D01*
X004631Y009951D01*
X004631Y009451D01*
X004881Y009451D01*
X004881Y008951D01*
X004631Y008951D01*
X004631Y008451D01*
X004881Y008451D01*
X004881Y008201D01*
X003631Y008201D01*
X003631Y008701D01*
X003631Y018701D02*
X000481Y018701D01*
D26*
X016217Y010750D03*
D27*
X021931Y004601D03*
X021931Y003601D03*
M02*
